<?xml version="1.0" encoding="utf-8"?>
<!-- Generator: Adobe Illustrator 25.2.0, SVG Export Plug-In . SVG Version: 6.00 Build 0)  -->
<svg version="1.1" id="Layer_1" xmlns="http://www.w3.org/2000/svg" xmlns:xlink="http://www.w3.org/1999/xlink" x="0px" y="0px"
	 viewBox="124 -92.1 1440 1024" style="enable-background:new 124 -92.1 1440 1024;" xml:space="preserve">
<style type="text/css">
	.st0{fill:#FAFEFF;}
	.st1{fill:#027882;}
	.st2{fill:#F0F6FF;}
	.st3{fill:#423565;}
	.st4{fill:url(#Shape_88_);}
	.st5{fill:url(#Shape_89_);}
	.st6{fill:url(#Shape_90_);}
	.st7{fill:#EF6949;}
	.st8{fill:url(#Shape_91_);}
	.st9{fill:#FFFFFF;}
	.st10{fill:#C0FAF5;}
	.st11{fill:#E29578;}
	.st12{fill:url(#Shape_92_);}
	.st13{fill:url(#Shape_93_);}
	.st14{fill:url(#Shape_94_);}
	.st15{fill:url(#Shape_95_);}
	.st16{fill:url(#Shape_96_);}
	.st17{fill:url(#Shape_97_);}
	.st18{fill:url(#Shape_98_);}
	.st19{fill:url(#Shape_99_);}
	.st20{fill:url(#Shape_100_);}
	.st21{fill:url(#Shape_101_);}
	.st22{fill:url(#Shape_102_);}
	.st23{fill:url(#Shape_103_);}
	.st24{fill:url(#Shape_104_);}
	.st25{fill:url(#Shape_105_);}
	.st26{fill:url(#Shape_106_);}
	.st27{fill:url(#Shape_107_);}
</style>
<title>Create_Startup</title>
<desc>Created with Sketch.</desc>
<g id="Create_Startup">
	<rect x="124" y="-92.1" class="st0" width="1440" height="1024"/>
	<g id="Website_BG" transform="translate(599.000000, 183.000000)">
		<path id="Shape" class="st1" d="M176-88.1c-26.5,0-48,21.5-48,48v336c0,26.5,21.5,48,48,48h511c26.5,0,48-21.5,48-48v-336
			c0-26.5-21.5-48-48-48H176z M176-92.1h511c28.7,0,52,23.3,52,52v336c0,28.7-23.3,52-52,52H176c-28.7,0-52-23.3-52-52v-336
			C124-68.8,147.3-92.1,176-92.1z"/>
		<path id="Shape_1_" class="st1" d="M176-90.1h511c27.6,0,50,22.4,50,50v5H126v-5C126-67.7,148.4-90.1,176-90.1z"/>
	</g>
	<g id="Website_BG_1_" transform="translate(209.000000, 343.000000)">
		<path id="Shape_2_" class="st1" d="M176-88.1c-26.5,0-48,21.5-48,48v336c0,26.5,21.5,48,48,48h511c26.5,0,48-21.5,48-48v-336
			c0-26.5-21.5-48-48-48H176z M176-92.1h511c28.7,0,52,23.3,52,52v336c0,28.7-23.3,52-52,52H176c-28.7,0-52-23.3-52-52v-336
			C124-68.8,147.3-92.1,176-92.1z"/>
		<path id="Shape_3_" class="st1" d="M176-90.1h511c27.6,0,50,22.4,50,50v5H126v-5C126-67.7,148.4-90.1,176-90.1z"/>
	</g>
	<g id="Website_BG_2_" transform="translate(693.000000, 386.000000)">
		<rect id="Shape_4_" x="124" y="-92.1" class="st2" width="611" height="436"/>
		<path id="Shape_5_" class="st1" d="M174-92.1h511c27.6,0,50,22.4,50,50v5H124v-5C124-69.7,146.4-92.1,174-92.1z"/>
		<path id="Shape_6_" class="st2" d="M299-72.1h91c19.3,0,35,15.7,35,35H264l0,0C264-56.4,279.7-72.1,299-72.1z"/>
		<path id="Shape_7_" class="st1" d="M295-58.1h81c2.8,0,5,2.2,5,5l0,0c0,2.8-2.2,5-5,5h-81c-2.8,0-5-2.2-5-5l0,0
			C290-55.9,292.2-58.1,295-58.1z"/>
		<path id="Shape_8_" class="st1" d="M184,92.9h131c2.8,0,5,2.2,5,5l0,0c0,2.8-2.2,5-5,5H184c-2.8,0-5-2.2-5-5l0,0
			C179,95.1,181.2,92.9,184,92.9z"/>
		<path id="Shape_9_" class="st1" d="M184,120.9h191c2.8,0,5,2.2,5,5l0,0c0,2.8-2.2,5-5,5H184c-2.8,0-5-2.2-5-5l0,0
			C179,123.1,181.2,120.9,184,120.9z"/>
		<path id="Shape_10_" class="st1" d="M184,148.9h191c2.8,0,5,2.2,5,5l0,0c0,2.8-2.2,5-5,5H184c-2.8,0-5-2.2-5-5l0,0
			C179,151.1,181.2,148.9,184,148.9z"/>
		<path id="Shape_11_" class="st1" d="M214.5,227.9h131c13,0,23.5,10.5,23.5,23.5l0,0c0,13-10.5,23.5-23.5,23.5h-131
			c-13,0-23.5-10.5-23.5-23.5l0,0C191,238.4,201.5,227.9,214.5,227.9z"/>
		<circle id="Shape_12_" class="st0" cx="177.5" cy="-63.6" r="15.5"/>
		<circle id="Shape_13_" class="st0" cx="222.5" cy="-63.6" r="15.5"/>
	</g>
	<g id="Website_BG_3_" transform="translate(136.000000, 111.000000)">
		<rect id="Shape_14_" x="124" y="-92.1" class="st2" width="611" height="436"/>
		<path id="Shape_15_" class="st1" d="M616,26.9l-27.4,15.9c-12.7-22.1-40.9-29.7-62.9-16.9c-22,12.8-29.6,41-16.9,63.1l-27.4,15.9
			c-21.5-37.3-8.7-85,28.4-106.5S594.5-10.4,616,26.9z"/>
		<path id="Shape_16_" class="st1" d="M477,130.9l134.6-78c21.5,37.3,8.7,85-28.4,106.5S498.5,168.2,477,130.9z"/>
		<circle id="Shape_17_" class="st1" cx="658.5" cy="54.4" r="26.5"/>
		<path id="Shape_18_" class="st1" d="M174-92.1h511c27.6,0,50,22.4,50,50v5H124v-5C124-69.7,146.4-92.1,174-92.1z"/>
		<path id="Shape_19_" class="st2" d="M299-72.1h91c19.3,0,35,15.7,35,35H264l0,0C264-56.4,279.7-72.1,299-72.1z"/>
		<path id="Shape_20_" class="st1" d="M295-58.1h81c2.8,0,5,2.2,5,5l0,0c0,2.8-2.2,5-5,5h-81c-2.8,0-5-2.2-5-5l0,0
			C290-55.9,292.2-58.1,295-58.1z"/>
		<path id="Shape_21_" class="st1" d="M184,92.9h131c2.8,0,5,2.2,5,5l0,0c0,2.8-2.2,5-5,5H184c-2.8,0-5-2.2-5-5l0,0
			C179,95.1,181.2,92.9,184,92.9z"/>
		<path id="Shape_22_" class="st1" d="M229-4.1h51c5.5,0,10,4.5,10,10l0,0c0,5.5-4.5,10-10,10h-51c-5.5,0-10-4.5-10-10l0,0
			C219,0.4,223.5-4.1,229-4.1z"/>
		<path id="Shape_23_" class="st1" d="M184,120.9h191c2.8,0,5,2.2,5,5l0,0c0,2.8-2.2,5-5,5H184c-2.8,0-5-2.2-5-5l0,0
			C179,123.1,181.2,120.9,184,120.9z"/>
		<path id="Shape_24_" class="st1" d="M184,148.9h191c2.8,0,5,2.2,5,5l0,0c0,2.8-2.2,5-5,5H184c-2.8,0-5-2.2-5-5l0,0
			C179,151.1,181.2,148.9,184,148.9z"/>
		<path id="Shape_25_" class="st1" d="M214.5,227.9h131c13,0,23.5,10.5,23.5,23.5l0,0c0,13-10.5,23.5-23.5,23.5h-131
			c-13,0-23.5-10.5-23.5-23.5l0,0C191,238.4,201.5,227.9,214.5,227.9z"/>
		<circle id="Shape_26_" class="st1" cx="193.5" cy="5.4" r="18.5"/>
		<circle id="Shape_27_" class="st0" cx="177.5" cy="-63.6" r="15.5"/>
		<circle id="Shape_28_" class="st0" cx="222.5" cy="-63.6" r="15.5"/>
	</g>
	<g id="Girl-with-website" transform="translate(300.000000, 86.000000)">
		<path id="Shape_29_" class="st3" d="M667,1.3c-5.3,4.1-51.2-21.2-45.6-40.4c9.1-31,20-6.2,83.1-26.4c-1.5-7.6,1.3-20.4,8.1-24
			c10.3-5.5,50.3,2.8,38.8,14.8c-7.7,8-18.2,12.6-31.7,13.9c27.5,12.8,42.9,43.3,54.7,42.8C792.3-19,782.8-4.5,806-9
			c8.5-1.7,53.9,14.7,13.9,76.2c-40,61.5-89.7,78.8-108.3,68.9c-8.2-4.4-11.5-14.7-9.8-31.1c-3.2,7.2-8,9.1-14.4,5.5
			c-9.6-5.3-21-14.6-8.1-38.6S670.5-1.5,667,1.3z"/>
		
			<linearGradient id="Shape_88_" gradientUnits="userSpaceOnUse" x1="-52.7314" y1="754.1489" x2="-52.7314" y2="752.922" gradientTransform="matrix(100.6981 0 0 -120.7264 6071.0786 91084.4609)">
			<stop  offset="0" style="stop-color:#FFD7C2"/>
			<stop  offset="1" style="stop-color:#FFA5A5"/>
		</linearGradient>
		<path id="Shape_30_" class="st4" d="M710.8,25.5c7.4-28.2,14.1-37.2,21-29.6c6.9,7.6,23.8,19.9,45.4,26.9
			c16.9-12.6,26.2,11.2,33.4,10.9c5.3-0.2-13.6,11.2-36.1,40.3c-23.7,30.5-49.4,47.5-47.4,37.1c3.9-20.2-14.2-42.3-5.1-51.7
			s19.8-11,12.9-18.3C727.9,33.6,718,22.4,710.8,25.5z"/>
		
			<linearGradient id="Shape_89_" gradientUnits="userSpaceOnUse" x1="-54.2168" y1="752.1857" x2="-53.819" y2="753.8427" gradientTransform="matrix(51.5849 32.2338 51.4791 -82.3838 -35285.0469 63904.332)">
			<stop  offset="0" style="stop-color:#AD7DFE"/>
			<stop  offset="1" style="stop-color:#5B62D9"/>
		</linearGradient>
		<path id="Shape_31_" class="st5" d="M683.3,95.9c16.8-22.1,41.5-40.8,46.4-44.7c5.8-1.4,5,6.1,6.9,8.5c3.5,4.2,5.9,9.9,0,45.7
			c-2,12.2-14.5,34.6-22.9,45.2c-4.4,5.6-43.8-25.3-41.8-46.5C672.3,100.9,681.1,98.8,683.3,95.9z"/>
		
			<linearGradient id="Shape_90_" gradientUnits="userSpaceOnUse" x1="-52.1633" y1="754.142" x2="-52.1633" y2="753.142" gradientTransform="matrix(186.9456 0 0 -248.5919 10570.8203 187491.75)">
			<stop  offset="0" style="stop-color:#AD7DFE"/>
			<stop  offset="1" style="stop-color:#5B62D9"/>
		</linearGradient>
		<path id="Shape_32_" class="st6" d="M732.5,51.4c1.2-1.1,13.9,30.2,33.1,19.9c19.2-10.3,6.9-49.5,10.8-50.3
			c17.7-3.7,26.2-3.9,38.4,0c12.2,3.9,41.7,54,51.6,109.7s53.5,74.5,45.2,97.4c-15.8,43.4-40.9,42.5-79.3,34.1
			c-25.6-5.6-48.8-17.8-69.5-36.5c19.6-26.1,19.7-49.8,0.5-71c-6.9-7.6-28.9-10-32.7-20c-8-21.1-4.3-64.5-2.8-72.3
			C729,56.5,727.5,55.9,732.5,51.4z"/>
		<path id="Shape_33_" class="st7" d="M720.8,37.9l19.1-27.1c-3.3,20-6.5,28.5-9.5,25.6C727.3,33.4,724.1,34,720.8,37.9z"/>
		
			<linearGradient id="Shape_91_" gradientUnits="userSpaceOnUse" x1="-52.8312" y1="754.59" x2="-52.8312" y2="753.3631" gradientTransform="matrix(93.1474 0 0 -75.846 5631.1265 57231.2539)">
			<stop  offset="0" style="stop-color:#FFD7C2"/>
			<stop  offset="1" style="stop-color:#FFA5A5"/>
		</linearGradient>
		<path id="Shape_34_" class="st8" d="M736.7-25.8c8.1-4,21.5,8.7,19.7,17.9c-1.4,7.1-7.1,12.4-13.8,13.5
			c-4.2,20.7-21.4,36.1-31.8,39.9c-8.8,3.3-37-21.9-44.4-44c-7.1-12,0.7-22.8-1.8-31.6c12.5,12.7,37.7,11.7,46.8,12.7
			c0.8,0.1,14.5,15.9,16.3,15.8c2.7-0.2,0.9-6.6,1.6-5.7C728.9-16.9,731.3-23.1,736.7-25.8z"/>
		<path id="Shape_35_" class="st3" d="M694.2,6.7c-1,0.5-2.3-0.1-2.9-1.3s-0.3-2.6,0.6-3.1c1-0.5,2.3,0.1,2.9,1.3
			C695.5,4.8,695.2,6.2,694.2,6.7z"/>
		<path id="Shape_36_" class="st3" d="M678.5,13.8c-1,0.5-2.3-0.1-2.9-1.3c-0.6-1.2-0.3-2.6,0.6-3.1c1-0.5,2.3,0.1,2.9,1.3
			S679.5,13.3,678.5,13.8z"/>
		<path id="Shape_37_" class="st3" d="M691.1-8.5c-2.8,1.2-5.4,1.4-5.8,0.4c-0.4-1,1.4-2.8,4.2-4.1s5.4-1.4,5.8-0.4
			C695.7-11.6,693.9-9.7,691.1-8.5z"/>
		<path id="Shape_38_" class="st3" d="M669.3,6.5c-2.3,2-4.7,3-5.4,2.2c-0.7-0.8,0.5-3.1,2.7-5.2c2.3-2,4.7-3,5.4-2.2
			C672.8,2.1,671.6,4.5,669.3,6.5z"/>
		<path id="Shape_39_" class="st7" d="M686.2,8.7c0.5,7.8,0.3,12.8-0.7,15c-0.3,0.8-0.2,1.1,0.7,1.3c1,0.3,2.8,0.1,5.4-0.4
			c0.3-0.1,0.5,0.1,0.6,0.4c0.1,0.3-0.1,0.5-0.4,0.6c-2.7,0.5-4.7,0.7-5.9,0.4c-1.4-0.3-1.9-1.3-1.3-2.7c0.9-2,1.1-6.9,0.6-14.6
			c0-0.3,0.2-0.5,0.5-0.5C685.9,8.2,686.2,8.4,686.2,8.7z"/>
		<path id="Shape_40_" class="st7" d="M745.9-14.9c-2.8-4.2-4.8-5.4-6.2-4c-1.5,1.5-2.6,5.5-3.1,11.9c0,0.3-0.3,0.5-0.5,0.5
			c-0.3,0-0.5-0.3-0.5-0.5c0.5-6.6,1.7-10.8,3.4-12.6c2-2,4.6-0.4,7.7,4.2c0.2,0.2,0.1,0.5-0.1,0.7
			C746.4-14.6,746.1-14.6,745.9-14.9z"/>
		<path id="Shape_41_" class="st7" d="M737.9-14.9c3.4,0.3,4.9,1.6,3.9,3.9c-0.1,0.3-0.4,0.4-0.7,0.3c-0.3-0.1-0.4-0.4-0.3-0.7
			c0.6-1.4-0.3-2.2-3.1-2.5c-0.3,0-0.5-0.3-0.5-0.5C737.4-14.8,737.6-15,737.9-14.9z"/>
		<path id="Shape_42_" class="st7" d="M711.3,30.2c-2.1,1.4-8.7,0.2-10.7-2.8c-2-3,7.6-13.3,9.6-10.4
			C712.2,20,713.4,28.8,711.3,30.2z"/>
		<path id="Shape_43_" class="st9" d="M674.4-30.3c-0.2-0.2-0.3-0.5-0.1-0.7c0.2-0.2,0.5-0.3,0.7-0.1c8.1,5.5,16.7,7.9,26,7.1
			c9.3-0.8,17.1-3.5,23.6-8.2c0.2-0.2,0.5-0.1,0.7,0.1c0.2,0.2,0.1,0.5-0.1,0.7c-6.6,4.8-14.7,7.5-24.1,8.4
			C691.6-22.2,682.7-24.7,674.4-30.3z"/>
		<rect id="Shape_44_" x="124" y="152.9" class="st10" width="822" height="566"/>
		<path id="Shape_45_" class="st9" d="M205,272.6c-15.5,0-28,11.6-28,26v332.5c0,14.4,12.5,26,28,26h210c15.5,0,28-11.6,28-26V298.6
			c0-14.4-12.5-26-28-26H205z M205,268.9h210c17.7,0,32,13.3,32,29.7v332.5c0,16.4-14.3,29.7-32,29.7H205c-17.7,0-32-13.3-32-29.7
			V298.6C173,282.2,187.3,268.9,205,268.9z"/>
		<rect id="Shape_46_" x="485" y="440.9" class="st1" width="418" height="218"/>
		<path id="Shape_47_" class="st11" d="M687.5,605.9c-29,0-52.5-23.5-52.5-52.5s23.5-52.5,52.5-52.5s52.5,23.5,52.5,52.5
			S716.5,605.9,687.5,605.9z M687.5,598.8c25.1,0,45.4-20.3,45.4-45.4S712.6,508,687.5,508s-45.4,20.3-45.4,45.4
			S662.4,598.8,687.5,598.8z"/>
		<path id="Shape_48_" class="st11" d="M682.4,536l22.5,14.7c1.4,0.9,1.8,2.8,0.9,4.2c-0.2,0.3-0.5,0.6-0.9,0.9l-22.5,14.7
			c-1.4,0.9-3.2,0.5-4.2-0.9c-0.3-0.5-0.5-1.1-0.5-1.6v-29.4c0-1.7,1.3-3,3-3C681.3,535.5,681.9,535.6,682.4,536z"/>
		<path id="Shape_49_" class="st9" d="M515,272.9c-15.5,0-28,12.5-28,28v66c0,15.5,12.5,28,28,28h358c15.5,0,28-12.5,28-28v-66
			c0-15.5-12.5-28-28-28H515z M515,268.9h358c17.7,0,32,14.3,32,32v66c0,17.7-14.3,32-32,32H515c-17.7,0-32-14.3-32-32v-66
			C483,283.2,497.3,268.9,515,268.9z"/>
		<path id="Shape_50_" class="st9" d="M506,380.1c-1.1,0.2-2.1-0.4-2.4-1.5c-0.2-1.1,0.4-2.1,1.5-2.4l383-85.2
			c1.1-0.2,2.1,0.4,2.4,1.5c0.2,1.1-0.4,2.1-1.5,2.4L506,380.1z"/>
		<path id="Shape_51_" class="st9" d="M888.1,380.1c1.1,0.2,2.1-0.4,2.4-1.5c0.2-1.1-0.4-2.1-1.5-2.4l-383-85.2
			c-1.1-0.2-2.1,0.4-2.4,1.5c-0.2,1.1,0.4,2.1,1.5,2.4L888.1,380.1z"/>
		<path id="Shape_52_" class="st11" d="M174,152.9h722c27.6,0,50,22.4,50,50v24H124v-24C124,175.3,146.4,152.9,174,152.9z"/>
		<circle id="Shape_53_" class="st0" cx="196" cy="190.9" r="21"/>
		<circle id="Shape_54_" class="st0" cx="261" cy="190.9" r="21"/>
		<path id="Shape_55_" class="st9" d="M428.2,640.4c0.6,0.9,0.4,2.2-0.5,2.8c-0.9,0.6-2.2,0.4-2.8-0.5L192.3,297.8
			c-0.6-0.9-0.4-2.2,0.5-2.8c0.9-0.6,2.2-0.4,2.8,0.5L428.2,640.4z"/>
		<path id="Shape_56_" class="st9" d="M192.3,640.4l232.5-344.9c0.6-0.9,1.9-1.2,2.8-0.5c0.9,0.6,1.2,1.9,0.5,2.8L195.7,642.7
			c-0.6,0.9-1.9,1.2-2.8,0.5C192,642.6,191.7,641.3,192.3,640.4z"/>
		
			<linearGradient id="Shape_92_" gradientUnits="userSpaceOnUse" x1="-52.8134" y1="754.5037" x2="-51.1657" y2="754.584" gradientTransform="matrix(183.0029 0 0 -71.6875 10158.1494 54248.4727)">
			<stop  offset="0" style="stop-color:#FFD7C2"/>
			<stop  offset="1" style="stop-color:#FFA5A5"/>
		</linearGradient>
		<path id="Shape_57_" class="st12" d="M574.7,165.5c21.2-2.8,37.4-7.1,48.8-12.9c5.6-2.8,13.2-5.2,22.9-7
			c11.9-2.9,20.1-17,31.1-23.7c8,9.1,15.9,17,23.5,23.6c-18,17.9-29.4,27.5-34.1,29c-15.1,4.7-47.3,8.6-96.6,11.5
			c-7.3,4.1-12.7,5.2-15.3,6.2c-19.4,7.1-37.6-14.9-37-22.2c0.4-4.9,37.7-1.4,38.8-6.1c0.7-2.7-2.2-10.4-0.8-11.6
			C558.9,150.1,571.3,161.5,574.7,165.5z"/>
		
			<linearGradient id="Shape_93_" gradientUnits="userSpaceOnUse" x1="-52.9342" y1="752.9578" x2="-51.4144" y2="754.4611" gradientTransform="matrix(191.9698 0 0 -171.5656 10729.4326 129495.5703)">
			<stop  offset="0" style="stop-color:#FFD7C2"/>
			<stop  offset="1" style="stop-color:#FFA5A5"/>
		</linearGradient>
		<path id="Shape_58_" class="st13" d="M669.4,212.6c16.7-13.3,37.4-34.8,46.7-43.9c6-5.9,9-5.3,16.4-11.9
			c40.1-39.9,25.7-59.1,49.7-70.2C803,77,805.7,88,813.9,97.3s-35.3,65.8-51.1,83.6c-10.5,11.8-45.9,23.7-86.7,51.6
			c-4.2,7.3-8.2,11-10,13.2c-13,16-39.9,6.6-43.1,0c-2.1-4.4,31.6-20.6,30.2-25.2c-0.8-2.7-7.2-7.8-6.6-9.5
			C647.9,207.5,664.4,210.9,669.4,212.6z"/>
		
			<linearGradient id="Shape_94_" gradientUnits="userSpaceOnUse" x1="-53.1516" y1="752.2657" x2="-53.0067" y2="753.4556" gradientTransform="matrix(50.9937 75.6013 83.1458 -56.0826 -59082.8281 46307.6523)">
			<stop  offset="0" style="stop-color:#AD7DFE"/>
			<stop  offset="1" style="stop-color:#5B62D9"/>
		</linearGradient>
		<path id="Shape_59_" class="st14" d="M818.7,108.4c-1.8,3.2-0.1,12.1-2.9,13.7c-18.6,10.5-62.8-12.9-59.5-19.2
			c3.4-6.5,17.2-21.5,26.3-40c7.7-15.7,10.6-35.5,16.2-39.4c13.1-9,29.1-4.5,42.8,38.4C843.5,67.1,832.1,84,818.7,108.4z"/>
	</g>
	<g id="Man" transform="translate(321.000000, 258.000000)">
		
			<linearGradient id="Shape_95_" gradientUnits="userSpaceOnUse" x1="-74.1641" y1="582.9985" x2="-74.1641" y2="581.9985" gradientTransform="matrix(74.5159 0 0 -73.8639 5832.5938 43146.8594)">
			<stop  offset="0" style="stop-color:#485295"/>
			<stop  offset="1" style="stop-color:#303565"/>
		</linearGradient>
		<path id="Shape_60_" class="st15" d="M271.9,128.1c-10.1-0.6,6.4-28,40-43.8c19.3,5.7,17.6,32.4,30.9,42.8
			c5.1,4-23,34.6-29.7,30.7C293.3,146.4,283.2,128.7,271.9,128.1z"/>
		
			<linearGradient id="Shape_96_" gradientUnits="userSpaceOnUse" x1="-73.4504" y1="581.8481" x2="-73.4504" y2="580.6212" gradientTransform="matrix(130.8127 0 0 -202.372 9868.4346 117860.4922)">
			<stop  offset="0" style="stop-color:#FFD7C2"/>
			<stop  offset="1" style="stop-color:#FFA5A5"/>
		</linearGradient>
		<path id="Shape_61_" class="st16" d="M300.4,34.5c-4.3,17.9-12.3,28.2-24,31c-17.5,4.1-19.3-8.7-34.2,0
			c-9.9,5.8-17.1,28-21.6,66.6c-5.5,43.7-14,76.2-25.6,97.3c-5.4,10,23.9,10,88.2,0c19.5-30.6,31.9-53.1,37.1-67.4
			c7.8-21.5,6.9-56.7,0-65.6c-4.6-5.9-8-10.8-10.3-14.4c7.1-18.2,11.9-27.3,14.2-27.3C326.7,54.6,318.7,47.9,300.4,34.5z"/>
		
			<linearGradient id="Shape_97_" gradientUnits="userSpaceOnUse" x1="-76.0848" y1="582.3417" x2="-76.0848" y2="581.1148" gradientTransform="matrix(34.5904 0 0 -95.9174 2833.1021 56369.1992)">
			<stop  offset="0" style="stop-color:#FFD7C2"/>
			<stop  offset="1" style="stop-color:#FFA5A5"/>
		</linearGradient>
		<path id="Shape_62_" class="st17" d="M189.3,559.2l-5.3,8.3l23.9,4.8c7-21.6,10.6-37.9,10.7-48.7
			C219.6,407.2,195.6,540.2,189.3,559.2z"/>
		
			<linearGradient id="Shape_98_" gradientUnits="userSpaceOnUse" x1="-76.5284" y1="582.4346" x2="-76.5284" y2="581.2076" gradientTransform="matrix(30.7818 0 0 -87.283 2672.6838 51352.1055)">
			<stop  offset="0" style="stop-color:#FFD7C2"/>
			<stop  offset="1" style="stop-color:#FFA5A5"/>
		</linearGradient>
		<path id="Shape_63_" class="st18" d="M306.5,567.5l25.9,2.4c-3.9-18.2-5.7-32.7-5.6-43.5c0.5-60.6-7.9-58.2-25.1,7.1L306.5,567.5z
			"/>
		
			<linearGradient id="Shape_99_" gradientUnits="userSpaceOnUse" x1="-72.8969" y1="580.3524" x2="-73.5693" y2="582.0182" gradientTransform="matrix(128.3171 0 0 -321.7224 9693.292 187482.8594)">
			<stop  offset="0" style="stop-color:#AD7DFE"/>
			<stop  offset="1" style="stop-color:#5B62D9"/>
		</linearGradient>
		<path id="Shape_64_" class="st19" d="M202.3,250c4.4-23.7,32.4-32.7,83.8-27.2c24.8,59.5,38.8,108.7,41.9,147.6s3.2,93.6,0,164.1
			c-13.4,9.5-24.2,11-32.5,4.4c-12.5-10,0.4-13.3-9.4-31.6c-9.8-18.3-9.6-91.3-15-105.9C248.3,340.2,199.1,267.1,202.3,250z"/>
		
			<linearGradient id="Shape_100_" gradientUnits="userSpaceOnUse" x1="-73.7461" y1="581.9259" x2="-73.7461" y2="580.8365" gradientTransform="matrix(99.5122 0 0 -333.0601 7572.147 194071.2188)">
			<stop  offset="0" style="stop-color:#AD7DFE"/>
			<stop  offset="1" style="stop-color:#5B62D9"/>
		</linearGradient>
		<path id="Shape_65_" class="st20" d="M195.1,229.4c-8.3,15.3,9.6,98.2,12.3,163.4c0.4,10.4-17.3,68.7-17.3,119
			c0,23.1-8,14.4-6,22.1c4.1,15.4,16.8,16.8,38.3,4.1c15.8-53.5,28.3-99.2,37.3-137.2c9-38,16.9-95.1,23.6-171.4
			C236,208.2,206.7,208.2,195.1,229.4z"/>
		
			<linearGradient id="Shape_101_" gradientUnits="userSpaceOnUse" x1="-73.8953" y1="582.2773" x2="-73.8953" y2="581.0504" gradientTransform="matrix(88.8676 0 0 -102.9906 6893.105 59970.5391)">
			<stop  offset="0" style="stop-color:#FFD7C2"/>
			<stop  offset="1" style="stop-color:#FFA5A5"/>
		</linearGradient>
		<path id="Shape_66_" class="st21" d="M291.5,9.4c-1.8-19,10-36.6,28.2-40.8c19.9-4.6,37.2-14.8,48.3,11.4s-15.6,87.6-25.9,85.7
			c-21.3-4-33.3-14.1-40.5-26.1c-0.1,0-0.2,0-0.3,0.1c-8.6,2-17.2-3.4-19.2-12C280.4,20,284.5,12.4,291.5,9.4z"/>
		<ellipse id="Shape_67_" class="st3" cx="346.9" cy="13.2" rx="2.4" ry="3"/>
		<ellipse id="Shape_68_" class="st3" cx="365.5" cy="10.8" rx="2.4" ry="3"/>
		<path id="Shape_69_" class="st3" d="M343.7-14.3c-3,12.4-10.1,17.3-21.4,14.7c4.7,8.5,1.6,16.6-9.5,24.4
			c-3.9-5.8-9.8-10.4-17.6-13.6c-6.9-2.9-20,18,6.2,29.3c-1.9,3.3-4.5,7-7.7,11.3c-6.4-11.2-11.1-18.5-14.1-22
			c-8.6-10.1-16.4-17-17.7-23.7c-2-10.2,4.2-17.7,18.6-22.5c-3.7-13.3-0.7-23,8.8-29.1s18.4-7.2,26.6-3.4
			c7.2-34.5,26.3-47.9,57.1-40.3c46.3,11.4,26.7,74.6,2.5,79.3C359.4-6.8,348.8-8.3,343.7-14.3z"/>
		
			<linearGradient id="Shape_102_" gradientUnits="userSpaceOnUse" x1="-74.0705" y1="584.8762" x2="-74.0705" y2="583.8762" gradientTransform="matrix(78.9577 0 0 -29.0685 6067.1162 17559.377)">
			<stop  offset="0" style="stop-color:#485295"/>
			<stop  offset="1" style="stop-color:#303565"/>
		</linearGradient>
		<path id="Shape_70_" class="st22" d="M181.8,561.3c-3.6,8.5-5.3,24.9,6.9,24.9s75.6,2.9,69-2.4c-4.4-3.6-20-11.1-46.9-22.5
			c-4.8,4.5-9.2,5.7-13,3.5C194.3,562.9,185.5,552.8,181.8,561.3z"/>
		
			<linearGradient id="Shape_103_" gradientUnits="userSpaceOnUse" x1="-74.0705" y1="584.8762" x2="-74.0705" y2="583.8762" gradientTransform="matrix(78.9578 0 0 -29.0685 6187.1904 17559.377)">
			<stop  offset="0" style="stop-color:#485295"/>
			<stop  offset="1" style="stop-color:#303565"/>
		</linearGradient>
		<path id="Shape_71_" class="st23" d="M301.9,561.3c-3.6,8.5-5.3,24.9,6.9,24.9s75.6,2.9,69-2.4c-4.4-3.6-20-11.1-46.9-22.5
			c-4.8,4.5-9.2,5.7-13,3.5C314.4,562.9,305.5,552.8,301.9,561.3z"/>
		
			<linearGradient id="Shape_104_" gradientUnits="userSpaceOnUse" x1="-73.3367" y1="582.2109" x2="-73.3367" y2="581.2109" gradientTransform="matrix(148.2072 0 0 -208.8395 11121.2998 121648.1562)">
			<stop  offset="0" style="stop-color:#485295"/>
			<stop  offset="1" style="stop-color:#303565"/>
		</linearGradient>
		<path id="Shape_72_" class="st24" d="M270.1,65.1c-10.7-0.5-30.3-10.2-42.6-2.9c-9.9,5.8-12,29.2-6.3,70.1
			c-7.9,45.2-21.2,77.6-39.9,97.3c-16.1,16.9,33.9,37.7,70.6,38.7c27.5,0.7,41.7-16.5,47.4-17.6c13.3-2.6-3-37.5,0-44.2
			c8.2-18.6,17.8-33.8,21.6-44.3c7.8-21.5,6.9-56.7,0-65.6c-4.6-5.9-8-10.8-10.3-14.4c3.2,9.6-0.6,14.4-11.3,14.4
			C283.2,96.6,272.4,65.2,270.1,65.1z"/>
		<path id="Shape_73_" class="st11" d="M140.7,220.9l310-179c15.3-8.8,34.9-3.6,43.7,11.7l33,57.2c8.8,15.3,3.6,34.9-11.7,43.7
			l-310,179c-15.3,8.8-34.9,3.6-43.7-11.7l-33-57.2C120.2,249.3,125.4,229.7,140.7,220.9z"/>
		<circle id="Shape_74_" class="st0" cx="214.5" cy="256.4" r="37.5"/>
		
			<linearGradient id="Shape_105_" gradientUnits="userSpaceOnUse" x1="-75.5777" y1="579.4027" x2="-77.5661" y2="579.1472" gradientTransform="matrix(14.1816 29.0766 32.2215 -15.7155 -17109.6953 11508.0068)">
			<stop  offset="0" style="stop-color:#FFD7C2"/>
			<stop  offset="1" style="stop-color:#FFA5A5"/>
		</linearGradient>
		<path id="Shape_75_" class="st25" d="M486.2,171.6c-3.2,1-5,1.2-5.5,0.7c-8.9-9.1-12.5-15-14.4-14.7c-2.1,0.3,0.5,6.8,7.9,19.4
			c-8.4-9.6-13.6-14-15.4-13.1s0.9,6.4,8.3,16.4c-7.9-6.4-12.5-9.3-13.9-8.7s1.2,5,7.6,13c-6-3.5-9.2-4.4-9.4-2.9
			c-0.4,2.3,8.9,9.4,14.9,8.1c9.6-2,14-3,17.3-4.8C485.9,183.9,486.7,179.4,486.2,171.6z"/>
		
			<linearGradient id="Shape_106_" gradientUnits="userSpaceOnUse" x1="-73.4808" y1="582.2444" x2="-73.3047" y2="580.7292" gradientTransform="matrix(135.1529 0 0 -166.7973 10149.3916 97233.3047)">
			<stop  offset="0" style="stop-color:#FFD7C2"/>
			<stop  offset="1" style="stop-color:#FFA5A5"/>
		</linearGradient>
		<path id="Shape_76_" class="st26" d="M187,109.2c2.3-16.8,36.3,11.1,30.9,20.7c-11.2,20-17.1,23.3-16.9,34.1
			c0.1,4.6,8.2,10,12.5,18.6c10.3,20.7,28.5,54.7,37,58.6c1,0.4,17.4-10.1,21.2-9.7c2.9,0.3-6.6,11.4-6.4,11.6
			c2.6,2,25.3,4.3,28.7,6.8c2.3,1.7-3.5,2.2-17.3,1.7c11.9,3.2,17.6,5.3,17,6.2c-0.6,0.9-7.6,0.9-21-0.1c11.7,4.1,17.3,6.5,16.9,7.1
			s-7.1-0.4-19.9-3.1c8.6,5,12.5,7.9,11.6,8.7c-1.3,1.2-11.9-4-17.6-3.2c-6.9,1-15.7-5.7-16.8-6.2c-29.4-16-82.5-84.9-86-91.5
			C152,153.1,183,138,187,109.2z"/>
		<ellipse id="Shape_77_" class="st3" cx="365.7" cy="0.8" rx="6.6" ry="2.4"/>
		<ellipse id="Shape_78_" class="st3" cx="341.9" cy="3.8" rx="6.6" ry="2.4"/>
		<path id="Shape_79_" class="st7" d="M357.6,11.9c0-0.3,0.2-0.6,0.5-0.7c0.3,0,0.6,0.2,0.7,0.5c0.9,9.1,2,14.9,3.4,17.1
			c0.9,1.5,0.5,2.8-1.1,3.4c-1.4,0.6-3.7,0.8-7,0.7c-0.3,0-0.6-0.3-0.6-0.6s0.3-0.6,0.6-0.6c3.2,0.1,5.4-0.1,6.5-0.6
			c0.9-0.4,1.1-0.8,0.5-1.7C359.7,27.1,358.5,21.2,357.6,11.9z"/>
		<path id="Shape_80_" class="st7" d="M345.1,46.6c-0.3-0.1-0.5-0.5-0.3-0.8s0.5-0.5,0.8-0.3c4,1.6,6.5,1,8-1.8
			c0.2-0.3,0.5-0.4,0.8-0.2c0.3,0.2,0.4,0.5,0.2,0.8C352.8,47.6,349.5,48.4,345.1,46.6z"/>
		<path id="Shape_81_" class="st7" d="M291.9,25.6c-0.1,0.3-0.4,0.5-0.7,0.4c-0.3-0.1-0.5-0.4-0.4-0.7c1.5-6.5,3.8-9.3,6.8-8
			c2.7,1.2,5.8,5.4,9.3,12.6c0.1,0.3,0,0.7-0.3,0.8c-0.3,0.1-0.7,0-0.8-0.3c-3.3-6.9-6.3-11-8.7-12C295,17.6,293.2,19.8,291.9,25.6z
			"/>
		
			<linearGradient id="Shape_107_" gradientUnits="userSpaceOnUse" x1="-73.7801" y1="582.733" x2="-73.7801" y2="581.733" gradientTransform="matrix(96.8657 0 0 -94.4412 7368.3574 55094.6484)">
			<stop  offset="0" style="stop-color:#485295"/>
			<stop  offset="1" style="stop-color:#303565"/>
		</linearGradient>
		<path id="Shape_82_" class="st27" d="M266.7,99.2c-15.1,8.2-37.6,54.8-45.4,55.9c-7.9,1.1-60.6-29.3-45.3-38.5
			c15.3-9.2,42.8-46.8,51.4-54.4c5.1-4.5,19.1,1.8,34.2,10.3C271.8,78.2,271.8,96.5,266.7,99.2z"/>
		<path id="Shape_83_" class="st7" d="M302.3,23.1c0.3,0,0.6,0.3,0.5,0.7c0,0.3-0.3,0.6-0.7,0.5c-3.4-0.3-4.6,0.4-4.2,2.2
			c0.1,0.3-0.1,0.6-0.5,0.7s-0.6-0.1-0.7-0.5C296.1,23.9,298.2,22.7,302.3,23.1z"/>
		<path id="Shape_84_" class="st9" d="M390-39.7c6.1-3.9,7.6-10.9,4.1-17.5c-0.2-0.3,0-0.7,0.3-0.8c0.3-0.2,0.7,0,0.8,0.3
			c3.8,7.1,2.1,14.8-4.5,19.1c-2.4,1.5-6.5,3.2-10.8,4.4c2,2.7,2.5,5.5,0.9,7.5c-3.7,4.4-11.1,6-22.2,4.8c-0.3,0-0.6-0.3-0.5-0.7
			s0.3-0.6,0.7-0.5c10.8,1.1,17.8-0.4,21.1-4.4c1.3-1.6,0.7-4-1.2-6.4c-1.8,0.5-3.6,0.8-5.2,1.1c-3.5,0.5-6.4,0.4-8.4-0.3
			c-2.4-0.9-3.5-2.7-3-5.3c0.5-2.6,2.3-3.9,4.9-3.8c2.2,0.1,4.9,1.2,7.5,2.9c1.8,1.2,3.4,2.6,4.6,4C383.4-36.5,387.6-38.2,390-39.7z
			 M373.7-38.3c-2.4-1.6-5-2.6-6.9-2.7c-2-0.1-3.3,0.8-3.7,2.8c-0.4,2,0.4,3.3,2.2,3.9c1.8,0.6,4.5,0.7,7.8,0.2
			c1.5-0.2,3-0.5,4.6-0.9C376.6-36.2,375.3-37.3,373.7-38.3z M124-92.1 M124-92.1"/>
		<polygon id="Shape_85_" class="st7" points="306.6,47 317.3,64.3 320.7,57.6 		"/>
		<path id="Shape_86_" class="st0" d="M268.7,210.3c-2.2,1.2-4.9,0.5-6.1-1.7c-1.2-2.2-0.5-4.9,1.7-6.1l173.7-100
			c2.2-1.2,4.9-0.5,6.1,1.7c1.2,2.2,0.5,4.9-1.7,6.1L268.7,210.3z"/>
		<path id="Shape_87_" class="st0" d="M283.7,239.3c-2.2,1.2-4.9,0.5-6.1-1.7c-1.2-2.2-0.5-4.9,1.7-6.1l173.7-100
			c2.2-1.2,4.9-0.5,6.1,1.7c1.2,2.2,0.5,4.9-1.7,6.1L283.7,239.3z"/>
	</g>
</g>
</svg>
