<?xml version="1.0" encoding="utf-8"?>
<!-- Generator: Adobe Illustrator 25.2.0, SVG Export Plug-In . SVG Version: 6.00 Build 0)  -->
<svg version="1.1" id="Layer_1" xmlns="http://www.w3.org/2000/svg" xmlns:xlink="http://www.w3.org/1999/xlink" x="0px" y="0px"
	 viewBox="0 0 500 500" style="enable-background:new 0 0 500 500;" xml:space="preserve">
<style type="text/css">
	.st0{fill:#F0F0FF;}
	.st1{fill:#E0DEFF;}
	.st2{fill:#C3B7FC;}
	.st3{fill:#DFDBFC;}
	.st4{fill:#E08675;}
	.st5{fill:#D7594A;}
	.st6{fill:#ECBF4C;}
	.st7{fill:#E5B340;}
	.st8{fill:#DFA331;}
	.st9{fill:#363271;}
	.st10{opacity:8.000000e-02;fill:#FFFFFF;enable-background:new    ;}
	.st11{fill:#FFFFFF;}
	.st12{fill:#DD6E5C;}
	.st13{opacity:0.3;fill:#C1463D;enable-background:new    ;}
	.st14{fill:#C64B42;}
	.st15{fill:#E4E4E4;}
	.st16{opacity:0.41;fill:#FFFFFF;enable-background:new    ;}
	.st17{fill:#E58F31;}
	.st18{fill:#F0C9A1;}
	.st19{fill:#E9B588;}
	.st20{opacity:0.37;fill:#E4E4E4;enable-background:new    ;}
	.st21{fill:#514E92;}
	.st22{opacity:0.41;fill:#ECBF4C;enable-background:new    ;}
	.st23{fill:#5F5EA5;}
	.st24{opacity:6.000000e-02;fill:#FFFFFF;enable-background:new    ;}
	.st25{fill:#A797FB;}
	.st26{opacity:0.11;fill:#5F5EA5;enable-background:new    ;}
</style>
<g id="BACKGROUND">
	<path class="st0" d="M47.7,377.1c-10.8-11.5-19.1-25.9-24-43.4c-12.1-42.8-10.6-95.1,16.8-131.9c17-22.9,42.1-38.6,69.8-45
		c28.8-6.7,36-32.1,54.5-52.2c15.6-16.9,37.3-30.3,58.7-38.5c57.4-22,143.6-9.3,176.9,48.4c8.7,15.1,11.6,33.7,21.8,48
		c10.9,15.3,28.9,22.8,39.9,37.8c11.2,15.1,17.6,33.5,20.1,52c3.1,24.1-0.2,48.6-6,72.2C448.1,438.3,294,406.1,206.7,410
		c-26,1.1-52.1,4-78,2C98.7,409.5,68.8,399.5,47.7,377.1z"/>
</g>
<g id="OBJECTS">
	<ellipse class="st1" cx="249.9" cy="403.6" rx="213.7" ry="22.2"/>
	<g>
		<path class="st2" d="M283.8,273.9c0.9,3.6,0.5,7.3,0,10.9c-0.8,5.7-1.9,11.3-4.1,16.6c-2.7,6.6-7.3,12.8-13,17.1
			c-1.5,1.1-3.1,1.9-4.6,2.5c-1.3,0.5-2.6,0.7-3.9,0.9c-2.8,0.4-5.7,0.4-8.9,0.5c-15.2,0.8-29.8-1.7-42.9-10
			c-4-2.6-7.9-5.7-10.2-9.9c-1.3-2.3-2-5-2-7.6c0-1.4,0.2-2.7,0.6-4c0.2-0.7,0.6-1.5,1-2.1c3.4-5.5,10.7-6.9,17.2-6.9
			c-8.4-1.4-16.3-5.7-22-12c-3.2-3.6-5.9-8.1-5.9-12.9c0-0.5,0-1,0.1-1.6c0.1-0.8,0.3-1.6,0.7-2.4c1.8-4.2,6.4-7.4,10.7-5.9
			c-3.9-5.1-7.8-10.1-11.8-15.2c-2.8-3.6-5.6-7.2-7.1-11.5c-1.3-3.6-1.5-7.7,0-11.1c0.3-0.7,0.6-1.3,1.1-1.9
			c0.3-0.5,0.7-0.9,1.2-1.3c2.9-2.7,7.5-3.6,10.7-1.3c-2.8-6.7-5.6-13.6-6.3-20.8c-0.7-7.2,0.8-15,5.8-20.3c1.2-1.3,2.7-2.4,4.4-3.3
			c1.2-0.6,2.4-1.1,3.7-1.4c4-1,8.3-0.6,11.7,1.8c4.1,2.9,6.1,7.9,7.7,12.7c2.3,6.6,4.5,13.3,6.5,20c-0.8-5.1,4.6-9.7,9.8-9.3
			c0.8,0.1,1.6,0.2,2.3,0.4c1.4,0.4,2.6,1.1,3.8,1.9c2.4,1.7,4.3,4.2,5.4,6.9c2.1,4.7,2.4,10,2.7,15.2c0.4,6.3,0.7,12.7,1.1,19
			c0.3-4.7,5.9-7.8,10.4-6.7c0.2,0.1,0.5,0.1,0.7,0.2c1.4,0.4,2.6,1.2,3.8,2.1c2.2,1.9,3.9,4.6,4.7,7.5c1.3,4.5,1,9.3,0.8,14
			c-0.5,8.4-1,16.7-1.6,25.1c0.9-2.8,3.9-4.5,6.9-4.4c0.7,0,1.4,0.1,2.1,0.4c0.6,0.2,1.1,0.5,1.7,0.8
			C281.3,268.1,283,270.9,283.8,273.9z"/>
		<path class="st3" d="M253,304.2c2.9,5.7,5.9,11.3,9.1,16.8c-1.3,0.5-2.6,0.7-3.9,0.9c-0.8-1.4-1.6-2.7-2.3-4.1
			c-2.4-4.3-4.7-8.6-6.9-12.9c-18.8,1-37.6-2.4-54.8-9.9c0-1.4,0.2-2.7,0.6-4c16.4,7.4,34.2,10.8,52.2,10.1
			c-5-9.8-9.7-19.8-14.1-29.9c-16.8-1.4-33-6.2-47.8-14.1c0-0.5,0-1,0.1-1.6c0.1-0.8,0.3-1.6,0.7-2.4c14,7.6,29.3,12.5,45.2,14
			c-4.6-10.7-9-21.5-13.2-32.3c-0.1-0.3-0.2-0.6-0.3-0.9c-15.5-4.2-28.4-13.6-39.9-24.6c0.3-0.7,0.6-1.3,1.1-1.9
			c0.3-0.5,0.7-0.9,1.2-1.3c10.4,10,22.1,18.9,35.9,23.3c-4.8-12.7-9.4-25.6-13.5-38.5c-3.2-10-6-20.1-7.8-30.5
			c1.2-0.6,2.4-1.1,3.7-1.4c2,12.6,5.8,24.9,9.8,37.1c3.8,11.4,7.9,22.7,12.2,34c4-2.7,6.1-6.9,7.8-11.3c1.9-5.1,3.5-10.3,4.9-15.5
			c1.7-6.1,2.9-12.4,3.2-18.6c1.4,0.4,2.6,1.1,3.8,1.9c-0.6,6.8-2,13.5-3.9,20.1c-2.7,9.4-5.3,21.8-14.4,27.2
			c4.7,12,9.6,24,14.9,35.8c14.1-12.3,22.6-30,23.9-48.5c1.4,0.4,2.6,1.2,3.8,2.1c-1.8,19.2-11.1,37.4-26,50
			c1.2,2.6,2.4,5.3,3.6,7.9c3,6.6,6.1,13.2,9.4,19.7c11.4-9.1,20.9-21.2,23.8-35.4c0.7,0,1.4,0.1,2.1,0.4c0.6,0.2,1.1,0.5,1.7,0.8
			C275.5,281.6,265.2,294.5,253,304.2z"/>
	</g>
	<g>
		<g>
			<path class="st4" d="M371.1,301.7c-0.8,3.3-0.5,6.7,0,10c0.7,5.2,1.7,10.4,3.7,15.3c2.5,6,6.7,11.8,12,15.7
				c1.4,1.1,2.8,1.8,4.2,2.3c1.2,0.4,2.4,0.7,3.6,0.9c2.6,0.4,5.2,0.3,8.2,0.5c14,0.8,27.4-1.5,39.4-9.2c3.7-2.4,7.2-5.2,9.4-9.1
				c1.2-2.1,1.9-4.6,1.9-7c0-1.3-0.2-2.5-0.6-3.7c-0.2-0.7-0.5-1.3-0.9-2c-3.1-5.1-9.9-6.4-15.8-6.3c7.7-1.3,15-5.2,20.3-11
				c3-3.3,5.4-7.5,5.4-11.9c0-0.5,0-1-0.1-1.4c-0.1-0.8-0.3-1.5-0.6-2.2c-1.6-3.9-5.9-6.8-9.8-5.4c3.6-4.7,7.2-9.3,10.8-14
				c2.5-3.3,5.1-6.7,6.5-10.6c1.2-3.3,1.4-7.1,0-10.2c-0.3-0.6-0.6-1.2-1-1.7c-0.3-0.4-0.7-0.9-1.1-1.2c-2.6-2.5-6.9-3.4-9.9-1.2
				c2.5-6.2,5.1-12.5,5.8-19.1c0.7-6.6-0.7-13.8-5.3-18.7c-1.1-1.2-2.5-2.2-4-3c-1.1-0.6-2.2-1-3.4-1.3c-3.7-1-7.6-0.6-10.7,1.6
				c-3.8,2.7-5.6,7.3-7.1,11.6c-2.1,6.1-4.1,12.2-6,18.4c0.7-4.7-4.2-8.9-9-8.6c-0.7,0.1-1.4,0.2-2.1,0.4c-1.2,0.4-2.4,1-3.5,1.8
				c-2.2,1.6-3.9,3.9-5,6.3c-1.9,4.4-2.2,9.2-2.5,14c-0.3,5.8-0.7,11.6-1,17.5c-0.3-4.3-5.4-7.2-9.6-6.1c-0.2,0.1-0.4,0.1-0.7,0.2
				c-1.3,0.4-2.4,1.1-3.5,2c-2.1,1.8-3.5,4.3-4.3,6.9c-1.2,4.1-1,8.6-0.7,12.9c0.5,7.7,1,15.4,1.4,23c-0.8-2.6-3.6-4.1-6.4-4
				c-0.7,0-1.3,0.1-1.9,0.3c-0.5,0.2-1,0.4-1.5,0.7C373.4,296.4,371.7,299,371.1,301.7z"/>
			<path class="st5" d="M399.4,329.7c-2.7,5.2-5.4,10.4-8.4,15.4c1.2,0.4,2.4,0.7,3.6,0.9c0.7-1.2,1.4-2.5,2.1-3.8
				c2.2-3.9,4.3-7.9,6.4-11.9c17.3,1,34.6-2.2,50.4-9.1c0-1.3-0.2-2.5-0.6-3.7c-15,6.8-31.4,10-48,9.3c4.6-9,8.9-18.2,13-27.5
				c15.4-1.3,30.4-5.7,43.9-12.9c0-0.5,0-1-0.1-1.4c-0.1-0.8-0.3-1.5-0.6-2.2c-12.8,7-27,11.5-41.6,12.9c4.3-9.8,8.3-19.8,12.1-29.7
				c0.1-0.3,0.2-0.5,0.3-0.8c14.3-3.9,26.1-12.5,36.7-22.6c-0.3-0.6-0.6-1.2-1-1.7c-0.3-0.4-0.7-0.9-1.1-1.2
				c-9.6,9.2-20.3,17.3-33,21.4c4.5-11.7,8.6-23.5,12.5-35.4c2.9-9.2,5.5-18.5,7.1-28c-1.1-0.6-2.2-1-3.4-1.3
				c-1.9,11.6-5.3,22.9-9,34.1c-3.5,10.5-7.2,20.9-11.2,31.2c-3.6-2.5-5.6-6.3-7.2-10.4c-1.8-4.7-3.2-9.5-4.5-14.3
				c-1.5-5.6-2.7-11.4-3-17.1c-1.2,0.4-2.4,1-3.5,1.8c0.5,6.2,1.9,12.4,3.6,18.5c2.5,8.6,4.9,20.1,13.2,25
				c-4.3,11.1-8.9,22-13.7,32.9c-13-11.3-20.8-27.6-21.9-44.6c-1.3,0.4-2.4,1.1-3.5,2c1.7,17.6,10.2,34.4,23.9,46
				c-1.1,2.4-2.2,4.8-3.3,7.2c-2.8,6-5.6,12.1-8.6,18.1c-10.5-8.4-19.2-19.5-21.9-32.5c-0.7,0-1.3,0.1-1.9,0.3
				c-0.5,0.2-1,0.4-1.5,0.7C378.7,308.8,388.1,320.7,399.4,329.7z"/>
		</g>
		<g>
			<path class="st6" d="M473.7,306.6c-3.1,1.6-5.7,4.2-8.2,6.5c-2.6,2.4-5.2,4.9-7.7,7.4c-5,5.1-9.8,10.4-14.3,15.9
				c-9.1,11.1-17.4,22.8-25.2,34.8c-4.4,6.7-8.7,13.6-12.9,20.4c-0.8,1.3,1.3,2.5,2.1,1.2c14.8-24.1,30.4-47.9,49.9-68.5
				c2.7-2.9,5.6-5.7,8.5-8.5c2.9-2.7,6.2-5.2,8.7-8.3C474.9,307.1,474.4,306.3,473.7,306.6z"/>
			<path class="st6" d="M484.7,300.4c-1.4-2.1-5-1.6-7.2-1.2c-5.2,1.1-9.7,4.6-13.4,8.4c-2.7,2.8-5.1,5.9-7.3,9.2
				c-2.1,3.2-4.1,6.8-5,10.6c-0.1,0.5,0.3,0.8,0.6,0.7c0.3,0.2,0.6,0.3,1,0.2c5.7-1.5,11.3-3.9,16.4-7.2c2.5-1.6,5-3.5,7.2-5.5
				c2.4-2.1,4.7-4.4,6.4-7.2C484.8,306.2,486.2,302.7,484.7,300.4z"/>
			<path class="st6" d="M448.4,328.6c1.1-3.1,2-6.3,2.8-9.5c0.8-3.1,1.4-6.3,1.8-9.5c0.4-2.8,0.5-5.7-0.9-7.9
				c-1.3-2-3.5-2.8-5.9-1.9c-2.6,1-4.5,3.5-6,6c-2.9,5.2-3.8,11.1-3.4,16.6c0.2,3.1,0.8,6,1.8,8.8c0.5,1.3,1.1,2.6,1.9,3.7
				c0.7,1,1.4,1.8,2.2,2.5c0.1,0.2,0.3,0.3,0.4,0.4c0,0,0.1,0.1,0.1,0.1c0.2,0.1,0.3,0.1,0.5-0.1c0.2-0.1,0.4-0.2,0.6-0.4
				C446.5,335,447.4,331.5,448.4,328.6z"/>
			<path class="st6" d="M434.9,342.4c0-3.2-0.1-6.4-0.4-9.6c-0.3-3.1-0.7-6.2-1.4-9.3c-0.5-2.7-1.4-5.4-3.3-7
				c-1.8-1.5-4.1-1.5-6.1,0.1c-2.1,1.7-3.1,4.6-3.6,7.4c-1,5.7,0.1,11.4,2.1,16.3c1.1,2.7,2.6,5.3,4.4,7.5c0.9,1.1,1.8,2,2.9,2.8
				c0.9,0.7,1.8,1.2,2.8,1.6c0.2,0.1,0.3,0.2,0.5,0.2c0,0,0.1,0,0.1,0.1c0.2,0.1,0.3,0,0.4-0.2c0.2-0.1,0.3-0.3,0.4-0.6
				C435.3,348.9,435,345.4,434.9,342.4z"/>
			<path class="st6" d="M422.8,358.6c-0.4-3.2-0.8-6.4-1.4-9.5c-0.6-3.1-1.4-6.1-2.3-9.1c-0.8-2.6-1.9-5.2-4-6.6
				c-1.9-1.3-4.3-1.1-6,0.8c-1.9,1.9-2.6,4.9-2.8,7.7c-0.4,5.8,1.3,11.3,3.8,16c1.4,2.6,3.2,5,5.2,7c1,1,2,1.8,3.2,2.5
				c1,0.6,1.9,1,3,1.3c0.2,0.1,0.4,0.1,0.5,0.1c0.1,0,0.1,0,0.2,0c0.2,0,0.3-0.1,0.4-0.3c0.2-0.1,0.3-0.3,0.4-0.6
				C423.8,365.1,423.2,361.6,422.8,358.6z"/>
			<path class="st6" d="M411.3,374.6c-0.5-3.1-1.2-6.3-2-9.3c-0.8-3-1.7-6-2.8-8.9c-1-2.5-2.2-5.1-4.4-6.3c-2-1.2-4.4-0.8-6.1,1.1
				c-1.8,2-2.3,5-2.4,7.8c-0.1,5.7,1.9,11.1,4.8,15.6c1.6,2.5,3.5,4.8,5.6,6.6c1.1,0.9,2.2,1.7,3.4,2.3c1,0.6,2,0.9,3.1,1.1
				c0.2,0.1,0.4,0.1,0.6,0.1c0.1,0,0.1,0,0.2,0c0.2,0,0.3-0.1,0.4-0.3c0.2-0.1,0.3-0.3,0.3-0.6C412.6,380.9,411.8,377.6,411.3,374.6
				z"/>
			<path class="st6" d="M420.3,381c3.2-0.4,6.3-0.6,9.5-0.7c3.1-0.1,6.2,0,9.3,0.3c2.7,0.2,5.5,0.7,7.3,2.5c1.7,1.6,2,4,0.7,6.1
				c-1.4,2.3-4.1,3.6-6.8,4.5c-5.5,1.7-11.2,1.2-16.3-0.3c-2.9-0.8-5.6-2-7.9-3.6c-1.2-0.8-2.2-1.6-3.2-2.6
				c-0.8-0.8-1.4-1.7-1.9-2.7c-0.1-0.1-0.2-0.3-0.3-0.5c0,0,0-0.1-0.1-0.1c-0.1-0.2,0-0.3,0.2-0.4c0.1-0.2,0.3-0.4,0.5-0.5
				C413.8,381.4,417.3,381.4,420.3,381z"/>
			<path class="st6" d="M431.4,364.8c3.2-0.4,6.4-0.7,9.6-0.8c3.2-0.1,6.3,0,9.4,0.2c2.7,0.2,5.6,0.7,7.5,2.6
				c1.7,1.7,2.1,4.1,0.8,6.3c-1.4,2.4-4.1,3.8-6.8,4.7c-5.5,1.8-11.4,1.4-16.6-0.2c-2.9-0.9-5.7-2.1-8.1-3.7
				c-1.2-0.8-2.3-1.7-3.3-2.7c-0.9-0.9-1.5-1.8-2-2.8c-0.1-0.1-0.2-0.3-0.3-0.5c0,0-0.1-0.1-0.1-0.1c-0.1-0.2,0-0.4,0.1-0.5
				c0.1-0.2,0.3-0.4,0.5-0.5C424.8,365.3,428.4,365.2,431.4,364.8z"/>
			<path class="st6" d="M483.1,335c0.2-2.4-1.1-4.9-3.6-6.5c-4.5-2.8-10.7-1.6-15.6-0.5c-5.5,1.2-10.7,3.3-15.5,6.2
				c-1.2,0.7-2.3,1.4-3.5,2c-0.4,0.2-0.8-0.1-1.1,0.3c-2.2,2.7,8.6,5.8,10.5,6.3c5.4,1.5,11.4,2.3,16.9,1.1
				C475.9,343,482.6,340.8,483.1,335z"/>
			<path class="st6" d="M470.1,357.2c0.7-2.2,0-4.8-2.1-6.9c-3.7-3.6-9.8-3.8-14.6-3.8c-5.4,0-10.8,0.8-15.9,2.6
				c-1.2,0.4-2.5,0.8-3.7,1.2c-0.4,0.1-0.7-0.2-1.1,0.1c-2.6,2.1,6.9,7.3,8.6,8.2c4.8,2.6,10.3,4.6,15.8,4.7
				C461.8,363.2,468.5,362.5,470.1,357.2z"/>
		</g>
	</g>
	<g>
		
			<rect x="248.2" y="170.4" transform="matrix(0.6892 -0.7246 0.7246 0.6892 -58.4361 299.5206)" class="st6" width="143.5" height="95"/>
		<polygon class="st7" points="304.9,302.6 315.4,213.6 403.8,198.7 		"/>
		<path class="st8" d="M236,237.1l86-9.1c4.4-0.5,7.8-4.1,8.1-8.5l4.8-86.3L236,237.1z"/>
	</g>
	<g>
		<g>
			<path class="st2" d="M413.3,395h-84c-1.7,0-3.1-1.4-3.1-3.1V254.3c0-1.7,1.4-3.1,3.1-3.1h84c1.7,0,3.1,1.4,3.1,3.1v137.6
				C416.4,393.6,415,395,413.3,395z"/>
			<rect x="331.8" y="258.2" class="st9" width="79" height="116.4"/>
			<polygon class="st10" points="410.8,374.6 331.8,374.6 331.8,258.2 			"/>
			<path class="st9" d="M379.1,384.6c0,4.3-3.5,7.7-7.7,7.7s-7.7-3.5-7.7-7.7c0-4.3,3.5-7.7,7.7-7.7S379.1,380.4,379.1,384.6z"/>
		</g>
		<g>
			<path class="st11" d="M401.1,209.8c-22.4,0-40.5,13.6-40.5,30.4c0,8.9,5.1,17,13.3,22.5c0.2,2.5,0.5,5.1,0.6,6.3
				c0.3,3.4,0.8,6.8,1.6,10.1c0.2,1.1,1.7,1.3,2.2,0.4c2.3-3.8,4.9-7.5,7.6-11.1c4.7,1.4,9.8,2.2,15.2,2.2
				c22.4,0,40.5-13.6,40.5-30.4C441.6,223.4,423.5,209.8,401.1,209.8z"/>
			<g>
				<path class="st2" d="M388.3,239.7c0,3.7-3,6.8-6.8,6.8s-6.8-3-6.8-6.8s3-6.8,6.8-6.8C385.2,232.9,388.3,235.9,388.3,239.7z"/>
				<path class="st2" d="M409.6,239.7c0,3.7-3,6.8-6.8,6.8s-6.8-3-6.8-6.8s3-6.8,6.8-6.8C406.6,232.9,409.6,235.9,409.6,239.7z"/>
				<path class="st2" d="M430.9,239.7c0,3.7-3,6.8-6.8,6.8c-3.7,0-6.8-3-6.8-6.8s3-6.8,6.8-6.8C427.9,232.9,430.9,235.9,430.9,239.7
					z"/>
			</g>
		</g>
	</g>
	<g>
		<g>
			<g>
				<path class="st12" d="M369.4,330.5c-0.5,1-1,2-1.5,3c-2.6,5.1-8.9,7.1-14,4.5L326,323.5l-0.3-0.2c-5.2-2.7-7.1-9.2-4.2-14.3
					l1.3-2.3l2-3.6c0.6-1,0.9-2.1,1.1-3.2c0.5-4.2-0.1-13.6-15.8-14.4h-76.9c-14.8,0.8-16.2,9.2-15.9,13.7c0.1,1.5,0.6,3,1.3,4.2
					l2,3.5l1.2,2.1c2.9,5.1,1,11.6-4.2,14.3l-0.1,0.1l-28,14.6c-5.1,2.7-11.4,0.7-14-4.5c-0.5-0.9-0.9-1.9-1.4-2.8
					c-5.4-11.1-8.4-21.8-3.8-34.3c2.9-8,9.2-14.3,17.2-17.3c30.3-11.6,59.1-15.2,84.2-14.8c25.1-0.4,53.9,3.2,84.2,14.8
					c8,3,14.2,9.3,17.2,17.3C377.6,308.8,374.7,319.5,369.4,330.5z"/>
				<path class="st4" d="M217.7,323.3l-28.1,14.6c-5.1,2.7-11.4,0.7-14-4.5c-0.5-0.9-0.9-1.9-1.4-2.8l46.6-23.8l1.2,2.1
					C224.8,314.1,222.9,320.6,217.7,323.3z"/>
				<path class="st4" d="M369.4,330.5c-0.5,1-1,2-1.5,3c-2.6,5.1-8.9,7.1-14,4.5l-28.1-14.6c-5.2-2.7-7.1-9.2-4.2-14.3l1.3-2.3
					L369.4,330.5z"/>
			</g>
			<path class="st13" d="M332.9,302.3c-0.9,4.4-3.8,8.1-5.7,12.2c-1.2,2.8-1.9,6.1-1.2,9l-0.3-0.2c-5.2-2.7-7.1-9.2-4.2-14.3
				l1.3-2.3l2-3.6c0.6-1,0.9-2.1,1.1-3.2c0.5-4.2-0.1-13.6-15.8-14.4h-76.9c-14.8,0.8-16.2,9.2-15.9,13.7c0.1,1.5,0.6,3,1.3,4.2
				l2,3.5l1.2,2.1c2.9,5.1,1,11.6-4.2,14.3l-0.1,0.1c0.4-0.7,0.6-1.5,0.7-2.3c0.5-3.3-1.2-6.5-2.7-9.4c-3.5-6.7-6.6-14.6-3.7-21.5
				c2.3-5.5,8-8.8,13.8-10.3c5.4-1.4,11.1-1.5,16.7-1.5c17.6-0.1,35.1-0.3,52.7-0.4c8.7-0.1,17.7,0,25.5,3.6
				C328.5,285.3,334.8,293.8,332.9,302.3z"/>
		</g>
		<g>
			<path class="st14" d="M350.2,368v23.8c0,2.1-1.7,3.7-3.7,3.7H196.4c-2.1,0-3.7-1.7-3.7-3.7V368c0-1.3,0.7-2.5,1.8-3.2
				c31.8-19.7,39-74.3,40.3-87.6c0.2-1.7,1.6-3,3.3-3h7.7c3.9,0,7,3.2,7,7v6.8c0,2.1,1.7,3.7,3.7,3.7h29.9c2.1,0,3.7-1.7,3.7-3.7
				v-6.8c0-3.9,3.2-7,7-7h7.7c1.7,0,3.1,1.3,3.3,3c1.3,13.4,8.5,67.9,40.3,87.6C349.5,365.5,350.2,366.7,350.2,368z"/>
			<circle class="st11" cx="270.6" cy="336.7" r="33.5"/>
			<g>
				<path class="st15" d="M283.8,336.7c0,4.8-2.6,9.1-6.5,11.4c-2,1.2-4.2,1.8-6.7,1.8c-7.3,0-13.2-5.9-13.2-13.2
					c0-5.3,3.1-9.8,7.6-11.9c1.7-0.8,3.6-1.2,5.6-1.2C277.9,323.6,283.8,329.5,283.8,336.7z"/>
				<g>
					<path class="st15" d="M254.1,336.5c0,3.5-2.8,6.3-6.3,6.3c-3.5,0-6.3-2.8-6.3-6.3c0-3.5,2.8-6.3,6.3-6.3
						C251.3,330.2,254.1,333,254.1,336.5z"/>
					<path class="st15" d="M299.7,336.5c0,3.5-2.8,6.3-6.3,6.3c-3.5,0-6.3-2.8-6.3-6.3c0-3.5,2.8-6.3,6.3-6.3
						C296.9,330.2,299.7,333,299.7,336.5z"/>
				</g>
				<g>
					<path class="st15" d="M270.6,352.9c3.5,0,6.3,2.8,6.3,6.3c0,3.5-2.8,6.3-6.3,6.3c-3.5,0-6.3-2.8-6.3-6.3
						C264.3,355.8,267.1,352.9,270.6,352.9z"/>
					<path class="st15" d="M270.6,307.4c3.5,0,6.3,2.8,6.3,6.3c0,3.5-2.8,6.3-6.3,6.3c-3.5,0-6.3-2.8-6.3-6.3
						C264.3,310.2,267.1,307.4,270.6,307.4z"/>
				</g>
				<g>
					<path class="st15" d="M282.2,348.1c2.5-2.5,6.5-2.5,8.9,0s2.5,6.5,0,8.9s-6.5,2.5-8.9,0S279.8,350.6,282.2,348.1z"/>
					<path class="st15" d="M250,315.9c2.5-2.5,6.5-2.5,8.9,0s2.5,6.5,0,8.9s-6.5,2.5-8.9,0C247.6,322.4,247.6,318.4,250,315.9z"/>
				</g>
				<g>
					<path class="st15" d="M282.2,324.8c-2.5-2.5-2.5-6.5,0-8.9s6.5-2.5,8.9,0s2.5,6.5,0,8.9C288.7,327.3,284.7,327.3,282.2,324.8z"
						/>
					<path class="st15" d="M250,357c-2.5-2.5-2.5-6.5,0-8.9s6.5-2.5,8.9,0s2.5,6.5,0,8.9C256.5,359.5,252.5,359.5,250,357z"/>
				</g>
			</g>
			<path class="st12" d="M350.2,380.7v11.1c0,2.1-1.7,3.7-3.7,3.7H196.4c-2.1,0-3.7-1.7-3.7-3.7v-11.1H350.2z"/>
			<path class="st16" d="M277.3,348.1c-2,1.2-4.2,1.8-6.7,1.8c-7.3,0-13.2-5.9-13.2-13.2c0-5.3,3.1-9.8,7.6-11.9L277.3,348.1z"/>
		</g>
	</g>
	<g>
		<path class="st11" d="M141.6,205c14.6,0,26.4,8.9,26.4,19.8c0,5.8-3.4,11.1-8.7,14.7c-0.1,1.7-0.3,3.3-0.4,4.1
			c-0.2,2.2-0.5,4.4-1,6.6c-0.2,0.7-1.1,0.8-1.5,0.2c-1.5-2.5-3.2-4.9-5-7.2c-3.1,0.9-6.4,1.4-9.9,1.4c-14.6,0-26.4-8.9-26.4-19.8
			C115.2,213.9,127,205,141.6,205z"/>
		<g>
			<path class="st2" d="M150,224.5c0,2.4,2,4.4,4.4,4.4c2.4,0,4.4-2,4.4-4.4c0-2.4-2-4.4-4.4-4.4C152,220.1,150,222.1,150,224.5z"/>
			<path class="st2" d="M136.1,224.5c0,2.4,2,4.4,4.4,4.4c2.4,0,4.4-2,4.4-4.4c0-2.4-2-4.4-4.4-4.4
				C138,220.1,136.1,222.1,136.1,224.5z"/>
			<path class="st2" d="M122.2,224.5c0,2.4,2,4.4,4.4,4.4s4.4-2,4.4-4.4c0-2.4-2-4.4-4.4-4.4S122.2,222.1,122.2,224.5z"/>
		</g>
	</g>
	<g>
		<g>
			<path class="st4" d="M42.2,298.4c3.5,1.8,6.4,4.7,9.2,7.3c3,2.7,5.8,5.5,8.6,8.3c5.6,5.7,10.9,11.7,16,17.9
				c10.2,12.4,19.5,25.5,28.3,39c4.9,7.6,9.7,15.2,14.5,22.9c0.9,1.5-1.4,2.8-2.3,1.4c-16.6-27-34-53.7-55.9-76.8
				c-3.1-3.3-6.3-6.4-9.5-9.5c-3.2-3-7-5.8-9.7-9.3C41,298.9,41.5,298,42.2,298.4z"/>
			<path class="st4" d="M30,291.4c1.6-2.3,5.6-1.8,8-1.3c5.8,1.2,10.8,5.1,15,9.4c3,3.2,5.7,6.6,8.1,10.3c2.4,3.6,4.6,7.6,5.6,11.9
				c0.1,0.5-0.3,0.8-0.7,0.8c-0.3,0.2-0.7,0.4-1.1,0.3c-6.4-1.7-12.7-4.4-18.3-8.1c-2.9-1.8-5.6-3.9-8.1-6.2c-2.7-2.4-5.3-5-7.2-8.1
				C29.8,297.9,28.2,294,30,291.4z"/>
			<path class="st4" d="M70.6,323c-1.2-3.5-2.3-7.1-3.1-10.7c-0.9-3.5-1.6-7.1-2-10.6c-0.4-3.1-0.5-6.4,1-8.9
				c1.4-2.3,3.9-3.2,6.7-2.1c2.9,1.1,5.1,3.9,6.7,6.7c3.2,5.8,4.2,12.5,3.8,18.6c-0.2,3.4-0.9,6.8-2,9.8c-0.6,1.5-1.3,2.9-2.1,4.2
				c-0.7,1.1-1.5,2-2.5,2.8c-0.1,0.2-0.3,0.3-0.5,0.4c0,0-0.1,0.1-0.1,0.1c-0.2,0.1-0.4,0.1-0.5-0.1c-0.2-0.1-0.5-0.2-0.7-0.5
				C72.7,330.2,71.8,326.3,70.6,323z"/>
			<path class="st4" d="M85.7,338.5c0-3.6,0.2-7.2,0.5-10.8c0.3-3.5,0.8-7,1.5-10.4c0.6-3,1.5-6,3.7-7.8c2-1.7,4.6-1.7,6.8,0.2
				c2.3,1.9,3.4,5.2,4,8.3c1.1,6.4-0.1,12.8-2.4,18.3c-1.3,3.1-2.9,5.9-5,8.4c-1,1.2-2.1,2.3-3.3,3.2c-1,0.8-2,1.3-3.2,1.8
				c-0.2,0.1-0.4,0.2-0.6,0.2c-0.1,0-0.1,0-0.2,0.1c-0.2,0.1-0.4,0-0.5-0.2c-0.2-0.1-0.4-0.3-0.5-0.6
				C85.4,345.8,85.7,341.9,85.7,338.5z"/>
			<path class="st4" d="M99.3,356.7c0.4-3.6,0.9-7.2,1.6-10.7c0.7-3.5,1.5-6.9,2.6-10.2c0.9-2.9,2.1-5.9,4.5-7.4
				c2.2-1.4,4.8-1.2,6.7,0.9c2.1,2.2,2.9,5.5,3.1,8.7c0.5,6.5-1.4,12.7-4.3,18c-1.6,2.9-3.5,5.6-5.8,7.8c-1.1,1.1-2.3,2-3.6,2.8
				c-1.1,0.7-2.2,1.1-3.3,1.5c-0.2,0.1-0.4,0.2-0.6,0.2c-0.1,0-0.1,0-0.2,0c-0.2,0.1-0.4-0.1-0.4-0.3c-0.2-0.2-0.3-0.4-0.4-0.7
				C98.2,363.9,98.9,360.1,99.3,356.7z"/>
			<path class="st4" d="M112.3,374.6c0.6-3.5,1.3-7,2.2-10.5c0.9-3.4,1.9-6.7,3.2-9.9c1.1-2.8,2.5-5.7,5-7.1
				c2.3-1.3,4.9-0.9,6.8,1.2c2,2.2,2.6,5.6,2.7,8.7c0.1,6.4-2.1,12.5-5.3,17.5c-1.8,2.8-3.9,5.4-6.3,7.4c-1.2,1-2.4,1.9-3.8,2.6
				c-1.2,0.6-2.3,1-3.5,1.3c-0.2,0.1-0.4,0.1-0.6,0.1c-0.1,0-0.1,0-0.2,0c-0.2,0-0.4-0.1-0.4-0.3c-0.2-0.2-0.3-0.4-0.4-0.7
				C110.7,381.7,111.7,377.9,112.3,374.6z"/>
			<path class="st4" d="M102.2,381.8c-3.6-0.4-7.1-0.7-10.7-0.8c-3.5-0.1-7,0-10.4,0.3c-3,0.3-6.1,0.8-8.2,2.8
				c-1.9,1.8-2.2,4.5-0.7,6.9c1.6,2.6,4.7,4.1,7.6,5c6.1,1.9,12.6,1.4,18.3-0.3c3.2-0.9,6.2-2.3,8.9-4c1.3-0.9,2.5-1.8,3.6-2.9
				c0.9-0.9,1.6-1.9,2.2-3c0.1-0.2,0.2-0.4,0.3-0.6c0-0.1,0.1-0.1,0.1-0.2c0.1-0.2,0-0.4-0.2-0.5c-0.1-0.2-0.3-0.4-0.6-0.6
				C109.4,382.3,105.5,382.2,102.2,381.8z"/>
			<path class="st4" d="M89.7,363.7c-3.6-0.4-7.2-0.7-10.8-0.8c-3.5-0.1-7.1,0-10.6,0.3c-3.1,0.3-6.3,0.8-8.4,2.9
				c-2,1.9-2.4,4.6-0.9,7.1c1.6,2.7,4.6,4.3,7.6,5.2c6.2,2,12.7,1.5,18.6-0.2c3.3-1,6.4-2.3,9.1-4.1c1.3-0.9,2.6-1.9,3.7-3
				c1-1,1.7-2,2.3-3.1c0.2-0.2,0.3-0.4,0.3-0.6c0-0.1,0.1-0.1,0.1-0.2c0.1-0.2,0-0.4-0.2-0.5c-0.1-0.2-0.3-0.4-0.6-0.6
				C97.1,364.2,93.1,364.1,89.7,363.7z"/>
			<path class="st4" d="M31.8,330.2c-0.2-2.7,1.2-5.5,4.1-7.3c5.1-3.2,12-1.8,17.5-0.6c6.1,1.3,12,3.7,17.4,7
				c1.3,0.8,2.6,1.6,3.9,2.3c0.4,0.2,0.9-0.1,1.2,0.4c2.4,3.1-9.6,6.5-11.7,7.1c-6.1,1.7-12.8,2.6-19,1.3
				C39.8,339.1,32.3,336.7,31.8,330.2z"/>
			<path class="st4" d="M46.3,355c-0.8-2.5,0-5.4,2.4-7.7c4.1-4.1,11-4.2,16.4-4.3c6,0,12.1,0.9,17.8,2.9c1.4,0.5,2.8,0.9,4.2,1.3
				c0.4,0.1,0.8-0.3,1.2,0.1c2.9,2.4-7.8,8.2-9.6,9.2c-5.4,2.9-11.5,5.2-17.7,5.2C55.6,361.8,48.1,361,46.3,355z"/>
		</g>
		<g>
			<path class="st8" d="M88.7,235.1c2.6,2.5,4.4,5.8,6.2,8.8c1.9,3.1,3.7,6.3,5.4,9.6c3.5,6.5,6.6,13.1,9.4,19.8
				c5.7,13.5,10.5,27.5,14.7,41.5c2.4,7.9,4.6,15.9,6.8,23.8c0.4,1.5-2,2.1-2.4,0.6c-7.6-28-16-56-29.2-81.9
				c-1.9-3.7-3.8-7.3-5.9-10.8c-2-3.5-4.6-6.9-6.1-10.7C87.4,235.2,88.1,234.5,88.7,235.1z"/>
			<path class="st8" d="M79.7,225.8c2-1.6,5.4-0.2,7.4,0.9c4.8,2.6,8.2,7.3,10.7,12.1c1.8,3.6,3.3,7.3,4.5,11.2
				c1.1,3.8,2.1,7.9,1.9,11.9c0,0.5-0.5,0.7-0.8,0.5c-0.3,0.1-0.7,0.2-1.1-0.1c-5.2-3.1-10-7.1-14-11.8c-2-2.4-3.9-4.9-5.5-7.6
				c-1.7-2.8-3.4-5.7-4.2-8.9C77.9,231.4,77.5,227.6,79.7,225.8z"/>
			<path class="st8" d="M107.3,264c-0.1-3.4-0.2-6.8,0-10.2c0.2-3.3,0.5-6.6,1-9.9c0.5-2.8,1.2-5.8,3.1-7.5c1.8-1.6,4.3-1.8,6.4-0.1
				c2.3,1.7,3.5,4.7,4.1,7.7c1.3,6,0.5,12.1-1.5,17.3c-1.1,3-2.5,5.7-4.3,8.1c-0.9,1.2-1.9,2.2-2.9,3.1c-0.9,0.8-1.9,1.4-2.9,1.8
				c-0.2,0.1-0.3,0.2-0.5,0.2c-0.1,0-0.1,0-0.2,0.1c-0.2,0.1-0.4,0-0.5-0.2c-0.2-0.1-0.4-0.3-0.5-0.6
				C107.2,270.9,107.4,267.2,107.3,264z"/>
			<path class="st8" d="M116.5,281.6c1-3.2,2-6.3,3.2-9.3c1.2-3,2.5-5.9,4-8.7c1.3-2.5,2.9-4.9,5.3-5.9c2.2-0.9,4.5-0.3,5.9,1.9
				c1.5,2.3,1.7,5.5,1.4,8.3c-0.7,5.9-3.4,11.2-6.8,15.4c-1.9,2.4-4.1,4.5-6.5,6.1c-1.2,0.8-2.4,1.4-3.7,1.9
				c-1.1,0.4-2.1,0.7-3.3,0.8c-0.2,0.1-0.4,0.1-0.6,0c-0.1,0-0.1,0-0.2,0c-0.2,0-0.3-0.1-0.4-0.3c-0.1-0.2-0.2-0.4-0.3-0.7
				C114.3,287.9,115.6,284.5,116.5,281.6z"/>
			<path class="st8" d="M123.7,301.1c1.3-3,2.6-6,4.2-9c1.5-2.9,3.1-5.6,4.9-8.3c1.6-2.3,3.4-4.6,5.8-5.3c2.3-0.7,4.5,0.2,5.7,2.5
				c1.3,2.4,1.1,5.6,0.5,8.4c-1.3,5.8-4.5,10.8-8.4,14.7c-2.2,2.2-4.6,4-7.1,5.4c-1.3,0.7-2.5,1.2-3.9,1.6c-1.2,0.3-2.2,0.4-3.3,0.4
				c-0.2,0-0.4,0-0.6,0c-0.1,0-0.1,0-0.2,0c-0.2,0-0.3-0.2-0.3-0.4c-0.1-0.2-0.2-0.4-0.2-0.7C120.8,307.1,122.5,303.9,123.7,301.1z"
				/>
			<path class="st8" d="M130.4,320.2c1.4-2.9,3-5.8,4.7-8.6c1.7-2.7,3.4-5.4,5.4-7.9c1.7-2.2,3.7-4.3,6.2-4.9
				c2.3-0.6,4.5,0.5,5.7,2.8c1.2,2.5,0.9,5.6,0.1,8.4c-1.6,5.7-5.1,10.4-9.2,14c-2.3,2-4.8,3.7-7.5,4.9c-1.3,0.6-2.6,1-4,1.3
				c-1.2,0.2-2.3,0.3-3.4,0.2c-0.2,0-0.4,0-0.6-0.1c-0.1,0-0.1,0-0.2,0c-0.2,0-0.3-0.2-0.3-0.4c-0.1-0.2-0.2-0.4-0.2-0.7
				C127.2,326,129.1,322.9,130.4,320.2z"/>
			<path class="st8" d="M119.7,323.9c-3-1.3-6.1-2.4-9.2-3.4c-3.1-1-6.1-1.8-9.2-2.4c-2.7-0.5-5.6-0.9-7.9,0.3
				c-2.1,1.1-3.1,3.3-2.4,5.8c0.7,2.7,3,4.8,5.4,6.4c4.9,3.2,10.7,4.5,16.1,4.5c3.1,0,6.1-0.4,8.8-1.2c1.4-0.4,2.7-1,3.9-1.6
				c1.1-0.6,1.9-1.3,2.7-2.1c0.2-0.1,0.3-0.2,0.4-0.4c0,0,0.1-0.1,0.1-0.1c0.1-0.2,0.1-0.3,0-0.5c0-0.2-0.1-0.4-0.4-0.6
				C125.9,326.1,122.5,325,119.7,323.9z"/>
			<path class="st8" d="M113.5,304.7c-3-1.3-6.1-2.5-9.3-3.5c-3.1-1-6.2-1.9-9.4-2.5c-2.8-0.6-5.7-0.9-8.1,0.4
				c-2.2,1.2-3.3,3.4-2.6,6c0.7,2.7,3,4.9,5.3,6.6c4.9,3.3,10.8,4.6,16.4,4.6c3.1,0,6.2-0.4,9.1-1.3c1.4-0.4,2.7-1,4-1.7
				c1.1-0.6,2-1.3,2.8-2.1c0.2-0.1,0.3-0.3,0.4-0.4c0,0,0.1-0.1,0.1-0.1c0.2-0.2,0.1-0.4,0-0.5c0-0.2-0.1-0.4-0.3-0.7
				C119.8,307.1,116.3,305.9,113.5,304.7z"/>
			<path class="st8" d="M71.2,260.3c0.5-2.4,2.5-4.5,5.5-5.3c5.3-1.5,11,1.5,15.5,4c5,2.8,9.6,6.4,13.4,10.6c0.9,1,1.9,2,2.9,3
				c0.3,0.3,0.8,0.2,1,0.6c1.3,3.3-10.2,3.2-12.1,3.2c-5.8-0.1-11.9-1-17-3.8C76,270.2,70.1,266.1,71.2,260.3z"/>
			<path class="st8" d="M77.5,285.9c0-2.4,1.4-4.7,4.1-6.2c4.7-2.5,10.7-0.9,15.5,0.5c5.3,1.5,10.4,4,14.8,7.2
				c1.1,0.8,2.2,1.5,3.3,2.2c0.3,0.2,0.8,0,1,0.4c1.9,2.8-9,5.2-10.8,5.6c-5.5,1.2-11.5,1.6-16.9,0C84,294.2,77.6,291.6,77.5,285.9z
				"/>
		</g>
	</g>
	<g>
		<path class="st6" d="M386.7,391.9c-1.1,1.7-2.8,2.9-4.6,3.9c-6.6,4-13.9,6.6-21.4,8.2c-0.6,0.2-1.3,0.3-2,0.4
			c-2.3,0.4-4.7,0.8-7,1c-0.6,0.1-1.2,0.1-1.7,0.2c-1.3,0.1-2.6,0.2-4,0.3c-0.5,0-1,0-1.5,0.1c-2.5,0.1-4.9,0.1-7.4,0
			c-0.4,0-0.8,0-1.3,0c-0.1,0-0.2,0-0.3,0c-1.3,0-2.6-0.1-3.9-0.2c-0.6,0-1.2-0.1-1.8-0.1c-1.9-0.1-3.9-0.3-5.8-0.5
			c-1.4-0.2-2.9-0.4-4.4-0.6c-1.2-0.2-2.5-0.4-3.7-0.7c-10.1-2.1-19.7-6.2-26-14.1c-1.3-1.6-2.4-4-2.3-5.8c0-0.6,0.2-1.1,0.5-1.5
			c0.6-0.7,1.6-1,3.3-0.7c7.7,1.1,15,5,22,8.3c0.9,0.4,1.7-0.7,1-1.4c-6.9-6.9-12.8-14.6-14.7-24.2c-0.1-0.7-0.2-1.5-0.1-2.2
			c0.1-0.6,0.3-1.1,0.8-1.5c0.1-0.1,0.2-0.1,0.3-0.2c0.7-0.5,1.5-0.7,2.3-0.6c1.7,0.1,3.1,1.2,4.4,2.3c5.8,5,10.5,12,15,18.6
			c0.6,0.9,2.1,0.3,1.9-0.8c-1.6-7.1-3-14.6-3.6-21.5c-0.4-3.8-0.4-8.1,2-11c0.1-0.1,0.2-0.3,0.4-0.4c0.2-0.2,0.5-0.4,0.7-0.4
			c0.3,0,0.5,0,0.8,0.1c0.3,0.1,0.6,0.4,0.9,0.6c3.4,2.9,5.5,7.4,6.8,11.7c1.8,6,4.3,13,5.7,19.6c0.1,0.4,0.8,0.4,0.8-0.1
			c0.2-10.3,2-21,7.4-29.5c0.7-1.1,1.9-1.9,3.2-2c0.3,0,0.5,0,0.7,0c0.6,0.1,1,0.3,1.4,0.7c1.4,1.2,1.9,3.7,1.9,5.8
			c0.1,8-0.6,18.1-2,26.7c-0.1,0.9,1,1.2,1.4,0.5c4.1-7.7,9.1-16.4,16.1-20.5c2-1.1,4.4-2.1,6.4-0.4c0.2,0.2,0.5,0.4,0.6,0.7
			c0.4,0.5,0.6,1,0.8,1.6c0,0,0,0,0,0.1c0.6,2.4-0.2,4.7-1.1,6.8c-3.3,7.7-8,14.9-13.8,21c-0.7,0.8,0.2,1.9,1.1,1.5
			c4-1.9,7.9-3.8,12-5.8c2-1,4.2-2,6.5-2.2c2.2-0.1,4.6,0.7,5.7,2.6c0.1,0.1,0.1,0.2,0.2,0.3c0.2,0.4,0.3,0.7,0.4,1.1
			C388.1,388.9,387.6,390.6,386.7,391.9z"/>
		<g>
			<path class="st17" d="M337.2,406c-0.4,0-0.8,0-1.3,0c-0.1,0-0.2,0-0.3,0c-3.6-19.8-7.8-39.5-12.5-59c0.2-0.2,0.5-0.4,0.7-0.4
				c0.3,0,0.5,0,0.8,0.1C329.4,366.3,333.5,386.1,337.2,406z"/>
			<path class="st17" d="M351.6,347.6c-2.2,11-3.7,21.9-4.3,33.2c-0.4,8.4-0.8,16.7-1.2,25.1c-0.5,0-1,0-1.5,0.1
				c0.4-8.9,0.8-17.7,1.3-26.6c0.6-11,2.2-21.7,4.3-32.4C350.7,347,351.2,347.3,351.6,347.6z"/>
			<path class="st17" d="M376.9,362c-5.4,7.9-11,15.7-15.9,23.8c-3.8,6.3-6.7,12.9-9.2,19.7c-0.6,0.1-1.2,0.1-1.7,0.2
				c2.4-6.7,5.2-13.2,8.8-19.4c5.3-8.9,11.3-17.3,17.2-25.9C376.5,360.8,376.8,361.4,376.9,362z"/>
			<path class="st17" d="M331.7,405.8c-0.6,0-1.2-0.1-1.8-0.1c-8.6-15.4-19.9-29.1-30.2-43.6c0.1-0.6,0.3-1.1,0.8-1.5
				C311.1,375.6,323,389.7,331.7,405.8z"/>
			<path class="st17" d="M319.7,404.5c-1.2-0.2-2.5-0.4-3.7-0.7c-9.5-6.5-19.3-12.7-28.4-19.9c0-0.6,0.2-1.1,0.5-1.5
				C298.3,390.4,309.2,397.2,319.7,404.5z"/>
			<path class="st17" d="M387.8,387.3c-2.3,1-4.6,1.9-6.7,3.1c-3.9,2-7.6,4.3-11.3,6.7c-3.2,2.1-6.4,4.2-9,7c-0.6,0.2-1.3,0.3-2,0.4
				c2.2-2.6,4.8-5,7.9-7.1c4-2.7,8.1-5.3,12.3-7.6c2.6-1.4,5.5-2.5,8.2-3.8c0.1,0.1,0.1,0.2,0.2,0.3
				C387.6,386.6,387.7,386.9,387.8,387.3z"/>
		</g>
	</g>
	<g>
		<g>
			<path class="st18" d="M218.2,363.8c-0.2,0.3-0.6,0.4-0.9,0.5c-3.7,1-7.4,1.4-11.2,1.5c-1.4,0.1-2.8,0.1-4.1,0.1
				c-1.3,0-2.6,0-3.9,0c-7.4,0-14.9,0-22.3,0c-1.1,0-2.2,0-3.3,0c-0.7,0-1.4,0-2.1,0c-4.4,0-8.8,0-13.1-0.9
				c-0.3-0.1,1.4-16.9,1.5-18.5c0.6-6.6,10.6-8.9,12.1-15.4c1.2-5.1-3.1-13.1-3.9-20c2.7-5.4,6.6-10,12.3-12.4
				c0.2-0.1,0.4-0.2,0.6-0.3c4.6-1.8,9.7-2.5,14.5-1.7c1.5,0.2,2.9,0.6,4.2,1.1c9.3,3.5,11.3,12.7,13.4,22.4c3,13.8,6,28.3,6.4,42.4
				C218.5,363,218.5,363.5,218.2,363.8z"/>
			<g>
				<path class="st9" d="M173.2,283.6c-1.9-2.7-3.5-6.4-4-9.6c-1.5-10.2,0.6-17.3,11.3-21.2c5.9-2.1,10.3-2.1,16.2,0.3
					c11.2,4.5,9.4,12,8.8,22.3c-0.3,4.6-5,11.7-8.3,15.3c-2.6,2.8-2.3,1.8-6.4,2.4C180.8,294.6,180.1,293.7,173.2,283.6z"/>
				<g>
					<path class="st18" d="M196,281.1v18.8c0,3.7-3,6.7-6.7,6.7s-6.7-3-6.7-6.7v-18.8H196z"/>
					<path class="st19" d="M196,284.7v12.9c-2.8,0.9-5.8,1.5-8.7,1.4c-1.5,0-3.1-0.2-4.6-0.7v-11.5c0.8-0.4,1.6-0.7,2.4-0.9
						C188.5,284.8,192.3,284.4,196,284.7z"/>
					<path class="st18" d="M171.3,274.9c0,12,6.4,21.8,16.4,21.8c10,0,18.1-9.7,18.1-21.8c0-12-8.1-21.8-18.1-21.8
						C177.7,253.1,171.3,262.9,171.3,274.9z"/>
					<path class="st18" d="M201.2,276.9c-0.8,3.5,0.8,6.8,3.5,7.5s5.7-1.6,6.5-5.1c0.8-3.5-0.8-6.8-3.5-7.5
						C205,271.2,202,273.4,201.2,276.9z"/>
					<path class="st18" d="M166.3,279.3c-0.8-3.5,0.8-6.8,3.5-7.5s5.7,1.6,6.5,5.1c0.8,3.5-0.8,6.8-3.5,7.5
						C170,285.1,167.1,282.8,166.3,279.3z"/>
				</g>
				<g>
					<path class="st11" d="M196.1,270.3c-3,0-5.4,2-6.1,4.8h-3.5c-0.7-2.7-3.2-4.8-6.1-4.8c-3.5,0-6.3,2.8-6.3,6.3
						c0,3.5,2.8,6.3,6.3,6.3c3.5,0,6.3-2.8,6.3-6.3c0-0.1,0-0.1,0-0.2h3.1c0,0.1,0,0.1,0,0.2c0,3.5,2.8,6.3,6.3,6.3
						c3.5,0,6.3-2.8,6.3-6.3C202.5,273.1,199.6,270.3,196.1,270.3z M180.4,281.6c-2.7,0-5-2.2-5-5c0-2.7,2.2-5,5-5c2.7,0,5,2.2,5,5
						C185.4,279.3,183.1,281.6,180.4,281.6z M196.1,281.6c-2.7,0-5-2.2-5-5c0-2.7,2.2-5,5-5c2.7,0,5,2.2,5,5
						C201.1,279.3,198.9,281.6,196.1,281.6z"/>
				</g>
				<path class="st9" d="M172,269c7.1-1.6,22.9,1.6,25.3-5.3c3.6,6-0.9,2.8,5.4,5.8c1.3,0.6,3.3,1.1,4.1-0.2c0.3-0.5,0.4-1,0.4-1.6
					c0.3-6.4-3.7-12.7-9.5-15.3c-1.5-0.7-3.2-1.1-4.8-1.4c-5.7-1-11.9,0-16.7,3.4c-3.1,2.2-5.4,5.5-6.4,9.1
					C168.9,266.9,167.1,270.1,172,269z"/>
			</g>
			<path class="st11" d="M205.5,366c-1.4,0.1-2.8,0.1-4.1,0.1c-1.3,0-2.6,0-3.9,0c-8.5,0-17.1,0-25.6-0.1c0,0,0,0,0,0l3.7-65.7
				l5-2.1c-0.1,5.9,5.2,6.9,8.2,6.8c2.1-0.1,4.9-0.1,6.2-1.7c1.6-2,1.7-2.1,2.7-6.1l6.4,2.4L205.5,366z"/>
			<path class="st20" d="M205.3,333.6c-8.8,3.5-18.5,3.5-28,3.4c0.5-10.3,1-20.6,1.6-30.9c0.2,0.4,0.5,0.9,0.8,1.5
				c2.3,4.7,5.3,8.9,8.9,12.6C193.7,325.3,199.5,329.4,205.3,333.6z"/>
			<path class="st21" d="M179.5,298.6c0.1,1.4-0.3,3-0.4,4.2c-0.1,1.1-0.1,2.2-0.2,3.3c-0.6,10.3-1.1,20.6-1.6,30.9
				c-0.2,3.3-0.3,6.5-0.5,9.8c-0.3,6.3-0.6,12.7-0.8,19c-1.8,0-3.6,0-5.4,0c-4.4,0-8.8,0-13.1-0.9c-0.3-0.1,1.4-16.9,1.5-18.5
				c0.6-6.6,6.4-6.1,7.9-12.6c0.5-3.4-1.6-21.7,0.9-26.6C170.5,301.8,173.8,301,179.5,298.6z"/>
			<path class="st21" d="M218.5,363.8c-0.2,0.3-0.6,0.4-0.9,0.5c-5,1.3-10.1,1.6-15.3,1.6c-0.3-6.4-0.5-12.7-0.8-19
				c-0.7-14.7-1.4-29.4-2.3-44c-0.1-1.4-0.6-3.6-0.3-5.1c9.3,3.5,13.9,3,15.1,21.2c0.7,13.6-3.4,31.7-2.9,45.7
				C211.1,365.1,218.7,363.5,218.5,363.8z"/>
		</g>
		<g>
			<g>
				<path class="st11" d="M201.2,290.2l-1.1-1.3c4.3-3.6,6.7-8.9,6.7-14.5v-3.8c0-9-7.1-16.3-15.9-16.3h-5.4
					c-8.7,0-15.8,7.3-15.8,16.2v3.9H168v-3.9c0-9.9,7.9-17.9,17.5-17.9h5.4c9.7,0,17.6,8.1,17.6,18v3.8
					C208.5,280.6,205.8,286.3,201.2,290.2z"/>
			</g>
			<path class="st8" d="M170.4,284.6h-2.6c-1.3,0-2.3-1.1-2.3-2.3V271c0-1.3,1.1-2.3,2.3-2.3h2.6c1.3,0,2.3,1.1,2.3,2.3v11.3
				C172.7,283.5,171.7,284.6,170.4,284.6z"/>
			<path class="st8" d="M209.6,284.6H207c-1.3,0-2.3-1.1-2.3-2.3V271c0-1.3,1.1-2.3,2.3-2.3h2.6c1.3,0,2.3,1.1,2.3,2.3v11.3
				C212,283.5,210.9,284.6,209.6,284.6z"/>
			<path class="st8" d="M202.4,289.3c0,1.1-0.8,2.1-1.9,2.3l-2.5,0.5c-1.3,0.2-2.5-0.6-2.8-1.9c0-0.2,0-0.3,0-0.5
				c0-0.4,0.1-0.8,0.3-1.1c0.3-0.6,0.9-1.1,1.6-1.3l2.5-0.5c1-0.2,2,0.3,2.5,1.2c0.1,0.2,0.2,0.5,0.3,0.7
				C202.4,289,202.4,289.1,202.4,289.3z"/>
			<path class="st22" d="M202.1,288.1c-0.3,0.6-0.9,1.1-1.6,1.2l-2.5,0.5c-1,0.2-2-0.3-2.5-1.1c0.3-0.6,0.9-1.1,1.6-1.3l2.5-0.5
				C200.6,286.8,201.6,287.3,202.1,288.1z"/>
			<path class="st6" d="M165.6,282h-0.8c-0.4,0-0.7-0.3-0.7-0.7v-9.8c0-0.4,0.3-0.7,0.7-0.7h0.8c0.4,0,0.7,0.3,0.7,0.7v9.8
				C166.3,281.7,165.9,282,165.6,282z"/>
			<path class="st6" d="M212.1,282h-0.8c-0.4,0-0.7-0.3-0.7-0.7v-9.8c0-0.4,0.3-0.7,0.7-0.7h0.8c0.4,0,0.7,0.3,0.7,0.7v9.8
				C212.8,281.7,212.5,282,212.1,282z"/>
		</g>
	</g>
	<g>
		<path class="st23" d="M160.8,273v44.6c0,0.4-0.1,0.7-0.3,1c-0.4,0.6-1,1-1.8,1H95.2c-1.1,0-2.1-0.9-2.1-2V273
			c0-1.1,0.9-2.1,2.1-2.1h63.6C159.9,270.9,160.8,271.8,160.8,273z"/>
		<path class="st24" d="M160.6,318.6c-0.4,0.6-1,1-1.8,1H95.2c-1.1,0-2.1-0.9-2.1-2V273c0-1.1,0.9-2.1,2.1-2.1h3.9
			c0.3,1,0.5,1.9,0.8,2.7c2.7,6.4,6.9,12.2,11.8,17.1c6.6,6.6,14.5,11.7,22.7,16.2C142.8,311.6,151.4,315.8,160.6,318.6z"/>
		<g>
			<polygon class="st21" points="137.6,297.9 136,297.9 118,297.9 116.4,297.9 112.3,328.3 118,328.3 136,328.3 141.6,328.3 			"/>
			<path class="st23" d="M132.6,310.2c0,3.1-2.5,5.6-5.6,5.6s-5.6-2.5-5.6-5.6c0-3.1,2.5-5.6,5.6-5.6
				C130.1,304.6,132.6,307.1,132.6,310.2z"/>
		</g>
	</g>
	<g>
		<polygon class="st2" points="232.4,334.8 231.9,340 231.6,343.1 228.5,374.2 228,379.5 227.3,386.3 226.3,396.8 225.6,404.2 
			225.3,406.7 107.8,406.7 106.8,396.8 105.8,386.3 105.1,379.5 104.6,374.2 101.5,343.1 101.2,340 100.7,334.8 		"/>
		<polygon class="st25" points="232.4,334.8 231.6,343.1 101.5,343.1 100.7,334.8 		"/>
		<g>
			<polygon class="st23" points="227.3,386.3 226.3,396.8 106.8,396.8 105.8,386.3 			"/>
			<polygon class="st11" points="228.5,374.2 228,379.5 105.1,379.5 104.6,374.2 			"/>
		</g>
		<path class="st26" d="M225.6,404.2l-0.2,2.5H107.8l-1-9.9l-1-10.6l-0.7-6.7l-0.5-5.3l-3.1-31.1l-0.3-3.2l-0.5-5.2h18.4
			c0.2,0.1,0.3,0.2,0.5,0.4c8.4,6.7,15.3,16.2,23.6,23.3c17.5,14.8,37.2,27.1,58.2,36.2c5.8,2.5,11.8,4.8,17.8,6.9
			C220.7,402.1,223,403.2,225.6,404.2z"/>
		<path class="st3" d="M237.6,340H95.5c-2.1,0-3.7-1.7-3.7-3.7v-4.2c0-2.1,1.7-3.7,3.7-3.7h142.1c2.1,0,3.7,1.7,3.7,3.7v4.2
			C241.3,338.3,239.7,340,237.6,340z"/>
	</g>
</g>
</svg>
