<svg id="visual" viewBox="0 0 900 180" width="900" height="180" xmlns="http://www.w3.org/2000/svg" xmlns:xlink="http://www.w3.org/1999/xlink" version="1.1"><path d="M0 60L7.5 61C15 62 30 64 45 65C60 66 75 66 90 65.5C105 65 120 64 135 64.3C150 64.7 165 66.3 180 66.8C195 67.3 210 66.7 225 64.8C240 63 255 60 270 61C285 62 300 67 315 67.3C330 67.7 345 63.3 360 62.2C375 61 390 63 405 63.7C420 64.3 435 63.7 450 64.7C465 65.7 480 68.3 495 68.3C510 68.3 525 65.7 540 66C555 66.3 570 69.7 585 68.5C600 67.3 615 61.7 630 60.3C645 59 660 62 675 63.8C690 65.7 705 66.3 720 66.5C735 66.7 750 66.3 765 66.3C780 66.3 795 66.7 810 65.2C825 63.7 840 60.3 855 60C870 59.7 885 62.3 892.5 63.7L900 65L900 0L892.5 0C885 0 870 0 855 0C840 0 825 0 810 0C795 0 780 0 765 0C750 0 735 0 720 0C705 0 690 0 675 0C660 0 645 0 630 0C615 0 600 0 585 0C570 0 555 0 540 0C525 0 510 0 495 0C480 0 465 0 450 0C435 0 420 0 405 0C390 0 375 0 360 0C345 0 330 0 315 0C300 0 285 0 270 0C255 0 240 0 225 0C210 0 195 0 180 0C165 0 150 0 135 0C120 0 105 0 90 0C75 0 60 0 45 0C30 0 15 0 7.5 0L0 0Z" fill="#027882"></path><path d="M0 50L7.5 50C15 50 30 50 45 50.2C60 50.3 75 50.7 90 50.8C105 51 120 51 135 48.2C150 45.3 165 39.7 180 39C195 38.3 210 42.7 225 45.5C240 48.3 255 49.7 270 49.2C285 48.7 300 46.3 315 44.2C330 42 345 40 360 40C375 40 390 42 405 41.3C420 40.7 435 37.3 450 38.2C465 39 480 44 495 46.2C510 48.3 525 47.7 540 47.5C555 47.3 570 47.7 585 46.8C600 46 615 44 630 42.7C645 41.3 660 40.7 675 40.2C690 39.7 705 39.3 720 39.2C735 39 750 39 765 40.7C780 42.3 795 45.7 810 46.8C825 48 840 47 855 47.3C870 47.7 885 49.3 892.5 50.2L900 51L900 0L892.5 0C885 0 870 0 855 0C840 0 825 0 810 0C795 0 780 0 765 0C750 0 735 0 720 0C705 0 690 0 675 0C660 0 645 0 630 0C615 0 600 0 585 0C570 0 555 0 540 0C525 0 510 0 495 0C480 0 465 0 450 0C435 0 420 0 405 0C390 0 375 0 360 0C345 0 330 0 315 0C300 0 285 0 270 0C255 0 240 0 225 0C210 0 195 0 180 0C165 0 150 0 135 0C120 0 105 0 90 0C75 0 60 0 45 0C30 0 15 0 7.5 0L0 0Z" fill="#4f9e9f"></path><path d="M0 19L7.5 20.2C15 21.3 30 23.7 45 24.8C60 26 75 26 90 23.8C105 21.7 120 17.3 135 15.3C150 13.3 165 13.7 180 15.5C195 17.3 210 20.7 225 21.3C240 22 255 20 270 20.8C285 21.7 300 25.3 315 26.3C330 27.3 345 25.7 360 24C375 22.3 390 20.7 405 21.7C420 22.7 435 26.3 450 26.3C465 26.3 480 22.7 495 21.8C510 21 525 23 540 22.2C555 21.3 570 17.7 585 16.3C600 15 615 16 630 18.2C645 20.3 660 23.7 675 24.2C690 24.7 705 22.3 720 20C735 17.7 750 15.3 765 14.7C780 14 795 15 810 15.2C825 15.3 840 14.7 855 17C870 19.3 885 24.7 892.5 27.3L900 30L900 0L892.5 0C885 0 870 0 855 0C840 0 825 0 810 0C795 0 780 0 765 0C750 0 735 0 720 0C705 0 690 0 675 0C660 0 645 0 630 0C615 0 600 0 585 0C570 0 555 0 540 0C525 0 510 0 495 0C480 0 465 0 450 0C435 0 420 0 405 0C390 0 375 0 360 0C345 0 330 0 315 0C300 0 285 0 270 0C255 0 240 0 225 0C210 0 195 0 180 0C165 0 150 0 135 0C120 0 105 0 90 0C75 0 60 0 45 0C30 0 15 0 7.5 0L0 0Z" fill="#83c5be"></path></svg>