<svg id="visual" viewBox="0 0 900 300" width="900" height="300" xmlns="http://www.w3.org/2000/svg" xmlns:xlink="http://www.w3.org/1999/xlink" version="1.1"><rect x="0" y="0" width="900" height="300" fill="#001220"></rect><path d="M0 100L21.5 103.3C43 106.7 86 113.3 128.8 113.8C171.7 114.3 214.3 108.7 257.2 102C300 95.3 343 87.7 385.8 84.2C428.7 80.7 471.3 81.3 514.2 85.5C557 89.7 600 97.3 642.8 102.3C685.7 107.3 728.3 109.7 771.2 110.2C814 110.7 857 109.3 878.5 108.7L900 108L900 0L878.5 0C857 0 814 0 771.2 0C728.3 0 685.7 0 642.8 0C600 0 557 0 514.2 0C471.3 0 428.7 0 385.8 0C343 0 300 0 257.2 0C214.3 0 171.7 0 128.8 0C86 0 43 0 21.5 0L0 0Z" fill="#fa7268"></path><path d="M0 98L21.5 92C43 86 86 74 128.8 68.5C171.7 63 214.3 64 257.2 68C300 72 343 79 385.8 80.8C428.7 82.7 471.3 79.3 514.2 79C557 78.7 600 81.3 642.8 82C685.7 82.7 728.3 81.3 771.2 80.5C814 79.7 857 79.3 878.5 79.2L900 79L900 0L878.5 0C857 0 814 0 771.2 0C728.3 0 685.7 0 642.8 0C600 0 557 0 514.2 0C471.3 0 428.7 0 385.8 0C343 0 300 0 257.2 0C214.3 0 171.7 0 128.8 0C86 0 43 0 21.5 0L0 0Z" fill="#ef5f67"></path><path d="M0 75L21.5 74.7C43 74.3 86 73.7 128.8 71.8C171.7 70 214.3 67 257.2 66.5C300 66 343 68 385.8 67.8C428.7 67.7 471.3 65.3 514.2 62.2C557 59 600 55 642.8 55.5C685.7 56 728.3 61 771.2 65C814 69 857 72 878.5 73.5L900 75L900 0L878.5 0C857 0 814 0 771.2 0C728.3 0 685.7 0 642.8 0C600 0 557 0 514.2 0C471.3 0 428.7 0 385.8 0C343 0 300 0 257.2 0C214.3 0 171.7 0 128.8 0C86 0 43 0 21.5 0L0 0Z" fill="#e34c67"></path><path d="M0 53L21.5 53.5C43 54 86 55 128.8 52.5C171.7 50 214.3 44 257.2 42.8C300 41.7 343 45.3 385.8 47.8C428.7 50.3 471.3 51.7 514.2 49.3C557 47 600 41 642.8 39.2C685.7 37.3 728.3 39.7 771.2 39.8C814 40 857 38 878.5 37L900 36L900 0L878.5 0C857 0 814 0 771.2 0C728.3 0 685.7 0 642.8 0C600 0 557 0 514.2 0C471.3 0 428.7 0 385.8 0C343 0 300 0 257.2 0C214.3 0 171.7 0 128.8 0C86 0 43 0 21.5 0L0 0Z" fill="#d53867"></path><path d="M0 31L21.5 29.8C43 28.7 86 26.3 128.8 25C171.7 23.7 214.3 23.3 257.2 24.7C300 26 343 29 385.8 27.7C428.7 26.3 471.3 20.7 514.2 19.8C557 19 600 23 642.8 26C685.7 29 728.3 31 771.2 32.2C814 33.3 857 33.7 878.5 33.8L900 34L900 0L878.5 0C857 0 814 0 771.2 0C728.3 0 685.7 0 642.8 0C600 0 557 0 514.2 0C471.3 0 428.7 0 385.8 0C343 0 300 0 257.2 0C214.3 0 171.7 0 128.8 0C86 0 43 0 21.5 0L0 0Z" fill="#c62368"></path></svg>