<svg version="1.0" xmlns="http://www.w3.org/2000/svg" width="766.000000pt" height="527.000000pt" viewBox="0 0 766.000000 527.000000" preserveAspectRatio="xMidYMid meet">

<g transform="translate(0.000000,527.000000) scale(0.100000,-0.100000)" fill="#83c5be" stroke="none">
<path d="M3045 4617 c-2050 -482 -2793 -660 -2830 -679 -65 -34 -139 -113 -173 -186 -21 -45 -27 -76 -30 -144 -5 -109 15 -179 72 -254 42 -54 1574 -1426 1650 -1476 70 -47 126 -61 234 -56 83 4 105 8 153 34 31 16 944 663 2028 1438 2097 1498 2011 1433 2048 1542 20 60 13 173 -14 236 -28 63 -96 134 -158 166 -38 19 -68 26 -125 28 -69 3 -281 -45 -2855 -649z" fill="#83c5be"/>
<path d="M5605 3446 c-22 -7 -54 -20 -72 -29 -35 -18 -3901 -2777 -3969 -2832 -22 -18 -56 -62 -74 -97 -31 -57 -34 -71 -34 -143 0 -106 34 -185 110 -254 63 -58 124 -81 210 -81 87 0 5590 1288 5670 1327 70 34 137 106 177 191 29 61 32 76 32 162 0 86 -3 101 -31 161 -18 36 -51 86 -75 111 -67 67 -1576 1409 -1617 1437 -81 55 -233 77 -327 47z" fill="#83c5be"/>
</g>
</svg>