<svg id="visual" viewBox="0 0 900 600" width="900" height="600" xmlns="http://www.w3.org/2000/svg" xmlns:xlink="http://www.w3.org/1999/xlink" version="1.1"><path d="M0 518L15 522.3C30 526.7 60 535.3 90 533.2C120 531 150 518 180 516C210 514 240 523 270 524.3C300 525.7 330 519.3 360 517.2C390 515 420 517 450 521.3C480 525.7 510 532.3 540 533.2C570 534 600 529 630 522.7C660 516.3 690 508.7 720 507.7C750 506.7 780 512.3 810 506.3C840 500.3 870 482.7 885 473.8L900 465L900 601L885 601C870 601 840 601 810 601C780 601 750 601 720 601C690 601 660 601 630 601C600 601 570 601 540 601C510 601 480 601 450 601C420 601 390 601 360 601C330 601 300 601 270 601C240 601 210 601 180 601C150 601 120 601 90 601C60 601 30 601 15 601L0 601Z" fill="#027882" stroke-linecap="round" stroke-linejoin="miter"></path></svg>